<svg width="24" height="24" viewBox="0 0 24 24" fill="none" xmlns="http://www.w3.org/2000/svg">
<g clip-path="url(#clip0_239_8741)">
<path d="M12 22C10.6167 22 9.31667 21.7373 8.1 21.212C6.88333 20.6873 5.825 19.975 4.925 19.075C4.025 18.175 3.31267 17.1167 2.788 15.9C2.26267 14.6833 2 13.3833 2 12C2 10.6167 2.26267 9.31667 2.788 8.1C3.31267 6.88333 4.025 5.825 4.925 4.925C5.825 4.025 6.88333 3.31233 8.1 2.787C9.31667 2.26233 10.6167 2 12 2C13.3833 2 14.6833 2.26233 15.9 2.787C17.1167 3.31233 18.175 4.025 19.075 4.925C19.975 5.825 20.6873 6.88333 21.212 8.1C21.7373 9.31667 22 10.6167 22 12C22 13.3833 21.7373 14.6833 21.212 15.9C20.6873 17.1167 19.975 18.175 19.075 19.075C18.175 19.975 17.1167 20.6873 15.9 21.212C14.6833 21.7373 13.3833 22 12 22Z" fill="#5367FC"/>
<path d="M7 6H8.50134V8.03693C9.31302 7.361 10.2942 6.9536 11.3227 6.86554C12.3511 6.77747 13.3812 7.01264 14.2845 7.54171C15.1878 8.07078 15.9243 8.87035 16.4022 9.84069C16.8802 10.811 17.0783 11.9092 16.972 12.9983C16.8657 14.0874 16.4596 15.1191 15.8044 15.9649C15.1492 16.8107 14.2739 17.4331 13.2876 17.7544C12.3013 18.0758 11.2476 18.0819 10.258 17.772C9.26848 17.4621 8.38678 16.8499 7.7229 16.0118L8.93898 15.0686C9.4209 15.6444 10.0498 16.0595 10.7494 16.2638C11.4491 16.4681 12.1896 16.4528 12.8813 16.2197C13.5729 15.9866 14.1861 15.5458 14.6465 14.9505C15.1069 14.3553 15.3948 13.6311 15.4754 12.8658C15.5559 12.1005 15.4257 11.3267 15.1005 10.6383C14.7752 9.94992 14.2689 9.37632 13.6428 8.98699C13.0166 8.59766 12.2976 8.40929 11.5727 8.44469C10.8478 8.48009 10.1481 8.73773 9.55829 9.18644H11.504V10.7797H7V6Z" fill="white"/>
</g>
<defs>
<clipPath id="clip0_239_8741">
<rect width="24" height="24" fill="white"/>
</clipPath>
</defs>
</svg>
