<svg width="22" height="20" viewBox="0 0 22 20" fill="none" xmlns="http://www.w3.org/2000/svg">
<path d="M11 4.50018C13.76 4.50018 16 6.74018 16 9.50018C16 10.0102 15.9 10.5002 15.76 10.9602L18.82 14.0202C20.21 12.7902 21.31 11.2502 22 9.49018C20.27 5.11018 16 2.00018 11 2.00018C9.73 2.00018 8.51 2.20018 7.36 2.57018L9.53 4.74018C10 4.60018 10.49 4.50018 11 4.50018ZM1.71 1.16018C1.6173 1.25269 1.54375 1.36258 1.49357 1.48355C1.44339 1.60452 1.41756 1.73421 1.41756 1.86518C1.41756 1.99614 1.44339 2.12583 1.49357 2.2468C1.54375 2.36777 1.6173 2.47766 1.71 2.57018L3.68 4.54018C2.03792 5.84056 0.76844 7.5516 0 9.50018C1.73 13.8902 6 17.0002 11 17.0002C12.52 17.0002 13.97 16.7002 15.31 16.1802L18.03 18.9002C18.217 19.0872 18.4706 19.1922 18.735 19.1922C18.9994 19.1922 19.253 19.0872 19.44 18.9002C19.627 18.7132 19.732 18.4596 19.732 18.1952C19.732 17.9307 19.627 17.6772 19.44 17.4902L3.13 1.16018C2.74 0.770176 2.1 0.770176 1.71 1.16018ZM11 14.5002C8.24 14.5002 6 12.2602 6 9.50018C6 8.73018 6.18 8.00017 6.49 7.36018L8.06 8.93018C8.03 9.11018 8 9.30018 8 9.50018C8 11.1602 9.34 12.5002 11 12.5002C11.2 12.5002 11.38 12.4702 11.57 12.4302L13.14 14.0002C12.49 14.3202 11.77 14.5002 11 14.5002ZM13.97 9.17018C13.8983 8.49454 13.5971 7.86391 13.1167 7.38348C12.6363 6.90306 12.0056 6.60187 11.33 6.53018L13.97 9.17018Z" fill="#7B7C7D"/>
</svg>
