<svg width="53" height="55" viewBox="0 0 53 55" fill="none" xmlns="http://www.w3.org/2000/svg">
<path d="M3.83572 27.9706L3.81474 27.3202C3.81474 27.1033 3.82174 26.9543 3.83572 26.873C4.64706 26.6832 5.25555 26.5138 5.66122 26.3648C6.08087 26.2157 6.42359 25.9718 6.68937 25.633C6.95515 25.2942 7.08805 24.8199 7.08805 24.2101V4.30943C6.94816 4.10615 6.64041 3.86222 6.16481 3.57764C5.6892 3.2795 5.18561 3.01525 4.65405 2.78487C4.13648 2.55449 3.75179 2.42575 3.5 2.39864V1.68718L9.50106 0.142292L10.9908 0V18.3151H12.7114L19.4259 11.9322C19.4539 11.8645 19.4679 11.7899 19.4679 11.7086C19.4679 11.397 19.335 11.1937 19.0692 11.0988C18.8174 10.9904 18.4327 10.9091 17.9151 10.8549C17.5095 10.8142 17.2157 10.7668 17.0339 10.7126C16.852 10.6584 16.7611 10.5432 16.7611 10.367C16.7611 10.1773 16.7821 9.9537 16.824 9.69622H25.7207L25.7836 10.367C25.7836 10.6516 25.2031 10.9091 24.0421 11.1395C23.0909 11.3292 22.3775 11.6206 21.9018 12.0136L16.1106 17.7662L21.6501 24.7182C22.0837 25.2739 22.6362 25.7143 23.3077 26.0395C23.9791 26.3648 24.6016 26.5884 25.1751 26.7103C25.7627 26.8323 26.1683 26.8933 26.3921 26.8933L26.3292 27.9706H15.9428C15.9288 27.8622 15.9008 27.659 15.8588 27.3608C15.8308 27.0627 15.8239 26.9136 15.8378 26.9136C16.6492 26.9136 17.2017 26.8255 17.4955 26.6494C17.7892 26.4596 17.9361 26.2496 17.9361 26.0192C17.9361 25.8972 17.8452 25.7414 17.6633 25.5517L12.7744 19.4331H10.9908V23.4579C10.9908 24.6234 11.2916 25.4704 11.8931 25.9989C12.5086 26.5138 13.4388 26.8323 14.6838 26.9543C14.6838 27.1575 14.6768 27.3608 14.6628 27.5641C14.6488 27.7674 14.6418 27.9029 14.6418 27.9706H3.83572Z" fill="#5367FC"/>
<path d="M21.6215 13.4975C21.2858 12.7657 20.9641 12.2168 20.6563 11.8509C20.3486 11.485 20.0618 11.2479 19.796 11.1395C19.5442 11.0175 19.2435 10.9294 18.8938 10.8752C18.6839 10.8481 18.4881 10.8075 18.3062 10.7532V9.69622H28.1471C28.1751 9.81818 28.2101 10.0418 28.2521 10.367C28.308 10.6787 28.308 10.8413 28.2521 10.8549C27.3288 11.0175 26.6504 11.2072 26.2167 11.4241C25.7831 11.6273 25.5663 11.9458 25.5663 12.3794C25.5663 12.664 25.6572 13.0841 25.839 13.6398L29.9936 23.6612L33.5817 14.2496C33.7915 13.7211 33.8964 13.2603 33.8964 12.8673C33.8964 12.2846 33.6796 11.8442 33.2459 11.546C32.8123 11.2343 32.1199 10.9972 31.1687 10.8346C31.1547 10.7532 31.1477 10.5974 31.1477 10.367C31.1477 10.2044 31.1477 10.0621 31.1477 9.94015C31.1617 9.81818 31.1687 9.73687 31.1687 9.69622H38.8693L38.8903 10.7329C38.6665 10.9091 38.3587 11.0649 37.9671 11.2005C37.6034 11.3495 37.2956 11.4986 37.0438 11.6477C36.806 11.7832 36.5682 12.0068 36.3304 12.3185C36.1066 12.6302 35.9177 13.057 35.7639 13.5991L28.315 31.3653C27.6995 32.856 26.9651 34.0011 26.1118 34.8007C25.2725 35.6002 24.2024 36 22.9015 36C21.9642 36 21.1879 35.7832 20.5724 35.3495C19.9709 34.9294 19.6701 34.3602 19.6701 33.642C19.6701 33.1135 19.859 32.6663 20.2367 32.3004C20.6283 31.9345 21.0969 31.7516 21.6425 31.7516C22.1321 31.7516 22.4958 31.8329 22.7336 31.9955C22.9854 32.1581 23.2302 32.402 23.468 32.7273C23.6498 32.9712 23.8177 33.1542 23.9716 33.2761C24.1394 33.4116 24.3633 33.4794 24.643 33.4794C25.0767 33.4794 25.4614 33.2897 25.7971 32.9102C26.1328 32.5308 26.4475 32.0158 26.7413 31.3653C27.049 30.7284 27.4757 29.7256 28.0212 28.3569L28.1681 27.9706L21.6215 13.4975Z" fill="#5367FC"/>
<path d="M49.3531 24.1491C49.0594 25.057 48.5348 25.8295 47.7794 26.4664C47.024 27.1033 46.1358 27.5844 45.1146 27.9097C44.0935 28.2213 43.0303 28.3772 41.9252 28.3772C39.9948 28.3772 38.3232 27.9435 36.9104 27.0762C35.5115 26.1954 34.4484 25.0299 33.721 23.5799C32.9936 22.1299 32.6299 20.5579 32.6299 18.8639C32.6299 17.0751 33.0705 15.4421 33.9518 13.965C34.8331 12.4743 36.0711 11.3021 37.6657 10.4483C39.2604 9.58103 41.0719 9.14737 43.1003 9.14737C44.2753 9.14737 45.3524 9.31677 46.3316 9.65556C47.3108 9.9808 48.0802 10.4483 48.6397 11.0582C49.2132 11.668 49.5 12.3727 49.5 13.1722C49.5 13.782 49.2972 14.2292 48.8915 14.5138C48.4858 14.7849 48.0522 14.9204 47.5906 14.9204C47.1569 14.9204 46.8212 14.8458 46.5834 14.6968C46.3456 14.5342 46.1707 14.3444 46.0588 14.1276C45.9609 13.8972 45.863 13.5788 45.7651 13.1722C45.6532 12.6573 45.5133 12.2372 45.3454 11.9119C45.1915 11.5867 44.8978 11.3021 44.4641 11.0582C44.0305 10.8142 43.408 10.6787 42.5967 10.6516C41.5196 10.611 40.5124 10.8684 39.5752 11.4241C38.6379 11.9661 37.8826 12.7792 37.309 13.8634C36.7495 14.9475 36.4697 16.2484 36.4697 17.7662C36.4697 19.1756 36.7285 20.4698 37.2461 21.6488C37.7637 22.8278 38.519 23.7696 39.5122 24.4743C40.5194 25.179 41.7224 25.5313 43.1213 25.5313C44.3382 25.5313 45.3524 25.389 46.1637 25.1045C46.9751 24.8199 47.8144 24.3456 48.6817 23.6815L49.3531 24.1491Z" fill="#5367FC"/>
<path opacity="0.5" d="M8.12719 46.344H3.03919L2.06319 49H0.879188L4.95919 37.96H6.22319L10.2872 49H9.10319L8.12719 46.344ZM7.79119 45.416L5.58319 39.368L3.37519 45.416H7.79119ZM16.6927 49.128C15.69 49.128 14.8687 48.8987 14.2287 48.44C13.5994 47.9707 13.2474 47.336 13.1727 46.536H14.3247C14.378 47.0267 14.6074 47.4267 15.0127 47.736C15.4287 48.0347 15.9834 48.184 16.6767 48.184C17.2847 48.184 17.7594 48.04 18.1007 47.752C18.4527 47.464 18.6287 47.1067 18.6287 46.68C18.6287 46.3813 18.5327 46.136 18.3407 45.944C18.1487 45.752 17.9034 45.6027 17.6047 45.496C17.3167 45.3787 16.922 45.256 16.4207 45.128C15.77 44.9573 15.242 44.7867 14.8367 44.616C14.4314 44.4453 14.0847 44.1947 13.7967 43.864C13.5194 43.5227 13.3807 43.0693 13.3807 42.504C13.3807 42.0773 13.5087 41.6827 13.7647 41.32C14.0207 40.9573 14.3834 40.6693 14.8527 40.456C15.322 40.2427 15.8554 40.136 16.4527 40.136C17.3914 40.136 18.1487 40.376 18.7247 40.856C19.3007 41.3253 19.61 41.976 19.6527 42.808H18.5327C18.5007 42.296 18.298 41.8853 17.9247 41.576C17.562 41.256 17.0607 41.096 16.4207 41.096C15.8554 41.096 15.3967 41.2293 15.0447 41.496C14.6927 41.7627 14.5167 42.0933 14.5167 42.488C14.5167 42.8293 14.618 43.112 14.8207 43.336C15.034 43.5493 15.2954 43.72 15.6047 43.848C15.914 43.9653 16.33 44.0987 16.8527 44.248C17.482 44.4187 17.9834 44.584 18.3567 44.744C18.73 44.904 19.05 45.1387 19.3167 45.448C19.5834 45.7573 19.722 46.168 19.7327 46.68C19.7327 47.1493 19.6047 47.5707 19.3487 47.944C19.0927 48.3067 18.7354 48.5947 18.2767 48.808C17.818 49.0213 17.29 49.128 16.6927 49.128ZM26.4489 49.128C25.4463 49.128 24.6249 48.8987 23.9849 48.44C23.3556 47.9707 23.0036 47.336 22.9289 46.536H24.0809C24.1343 47.0267 24.3636 47.4267 24.7689 47.736C25.1849 48.0347 25.7396 48.184 26.4329 48.184C27.0409 48.184 27.5156 48.04 27.8569 47.752C28.2089 47.464 28.3849 47.1067 28.3849 46.68C28.3849 46.3813 28.2889 46.136 28.0969 45.944C27.9049 45.752 27.6596 45.6027 27.3609 45.496C27.0729 45.3787 26.6783 45.256 26.1769 45.128C25.5263 44.9573 24.9983 44.7867 24.5929 44.616C24.1876 44.4453 23.8409 44.1947 23.5529 43.864C23.2756 43.5227 23.1369 43.0693 23.1369 42.504C23.1369 42.0773 23.2649 41.6827 23.5209 41.32C23.7769 40.9573 24.1396 40.6693 24.6089 40.456C25.0783 40.2427 25.6116 40.136 26.2089 40.136C27.1476 40.136 27.9049 40.376 28.4809 40.856C29.0569 41.3253 29.3663 41.976 29.4089 42.808H28.2889C28.2569 42.296 28.0543 41.8853 27.6809 41.576C27.3183 41.256 26.8169 41.096 26.1769 41.096C25.6116 41.096 25.1529 41.2293 24.8009 41.496C24.4489 41.7627 24.2729 42.0933 24.2729 42.488C24.2729 42.8293 24.3743 43.112 24.5769 43.336C24.7903 43.5493 25.0516 43.72 25.3609 43.848C25.6703 43.9653 26.0863 44.0987 26.6089 44.248C27.2383 44.4187 27.7396 44.584 28.1129 44.744C28.4863 44.904 28.8063 45.1387 29.0729 45.448C29.3396 45.7573 29.4783 46.168 29.4889 46.68C29.4889 47.1493 29.3609 47.5707 29.1049 47.944C28.8489 48.3067 28.4916 48.5947 28.0329 48.808C27.5743 49.0213 27.0463 49.128 26.4489 49.128ZM33.7572 38.616C33.5332 38.616 33.3412 38.536 33.1812 38.376C33.0212 38.216 32.9412 38.0187 32.9412 37.784C32.9412 37.5493 33.0212 37.3573 33.1812 37.208C33.3412 37.048 33.5332 36.968 33.7572 36.968C33.9812 36.968 34.1732 37.048 34.3332 37.208C34.4932 37.3573 34.5732 37.5493 34.5732 37.784C34.5732 38.0187 34.4932 38.216 34.3332 38.376C34.1732 38.536 33.9812 38.616 33.7572 38.616ZM34.3172 40.264V49H33.1972V40.264H34.3172ZM41.4614 49.128C40.4588 49.128 39.6374 48.8987 38.9974 48.44C38.3681 47.9707 38.0161 47.336 37.9414 46.536H39.0934C39.1468 47.0267 39.3761 47.4267 39.7814 47.736C40.1974 48.0347 40.7521 48.184 41.4454 48.184C42.0534 48.184 42.5281 48.04 42.8694 47.752C43.2214 47.464 43.3974 47.1067 43.3974 46.68C43.3974 46.3813 43.3014 46.136 43.1094 45.944C42.9174 45.752 42.6721 45.6027 42.3734 45.496C42.0854 45.3787 41.6908 45.256 41.1894 45.128C40.5388 44.9573 40.0108 44.7867 39.6054 44.616C39.2001 44.4453 38.8534 44.1947 38.5654 43.864C38.2881 43.5227 38.1494 43.0693 38.1494 42.504C38.1494 42.0773 38.2774 41.6827 38.5334 41.32C38.7894 40.9573 39.1521 40.6693 39.6214 40.456C40.0908 40.2427 40.6241 40.136 41.2214 40.136C42.1601 40.136 42.9174 40.376 43.4934 40.856C44.0694 41.3253 44.3788 41.976 44.4214 42.808H43.3014C43.2694 42.296 43.0668 41.8853 42.6934 41.576C42.3308 41.256 41.8294 41.096 41.1894 41.096C40.6241 41.096 40.1654 41.2293 39.8134 41.496C39.4614 41.7627 39.2854 42.0933 39.2854 42.488C39.2854 42.8293 39.3868 43.112 39.5894 43.336C39.8028 43.5493 40.0641 43.72 40.3734 43.848C40.6828 43.9653 41.0988 44.0987 41.6214 44.248C42.2508 44.4187 42.7521 44.584 43.1254 44.744C43.4988 44.904 43.8188 45.1387 44.0854 45.448C44.3521 45.7573 44.4908 46.168 44.5014 46.68C44.5014 47.1493 44.3734 47.5707 44.1174 47.944C43.8614 48.3067 43.5041 48.5947 43.0454 48.808C42.5868 49.0213 42.0588 49.128 41.4614 49.128ZM49.6657 41.208V46.632C49.6657 47.1653 49.767 47.5333 49.9697 47.736C50.1724 47.9387 50.5297 48.04 51.0417 48.04H52.0657V49H50.8657C50.0764 49 49.4897 48.8187 49.1057 48.456C48.7217 48.0827 48.5297 47.4747 48.5297 46.632V41.208H47.3137V40.264H48.5297V38.072H49.6657V40.264H52.0657V41.208H49.6657Z" fill="black"/>
</svg>
