<svg width="681" height="566" viewBox="0 0 681 566" fill="none" xmlns="http://www.w3.org/2000/svg">
<mask id="mask0_338_6464" style="mask-type:alpha" maskUnits="userSpaceOnUse" x="-2" y="0" width="683" height="566">
<rect x="-1.25781" width="682.258" height="566" fill="#D9D9D9"/>
</mask>
<g mask="url(#mask0_338_6464)">
<path opacity="0.9" d="M53.8633 202.948L53.8631 202.936C53.7591 196.296 54.2379 189.533 55.0685 182.994C61.2433 135.886 89.5216 85.5497 136.55 69.6668C169.959 58.5833 198.913 69.7566 227.822 84.1753C232.153 86.3354 236.484 88.5701 240.83 90.812C265.393 103.484 290.402 116.386 318.205 117.338C353.122 118.611 385.858 106.607 418.348 94.6927C420.864 93.7704 423.377 92.8486 425.891 91.9336C460.944 79.171 495.918 67.7006 533.65 73.7763C587.468 82.5788 628.889 129.003 647.88 180.326C687.351 287.479 637.595 417.117 541.089 478.35C444.586 539.582 312.417 533.298 216.314 470.894C207.856 465.223 199.794 459.816 192.205 453.714L192.205 453.714L192.196 453.707C117.098 394.703 54.1459 301.11 53.8633 202.948Z" stroke="white" stroke-width="2"/>
<path d="M25.598 354.083C28.1717 360.192 31.1686 366.329 34.6165 372.071C84.2737 457.22 185.995 506.754 280.738 520.19C290.415 521.674 300.149 522.314 310.305 522.981C425.096 528.823 543.002 467.833 596.01 366.092C649.018 264.35 627.033 126.71 538.77 53.4512C496.445 18.4254 436.958 -1.18053 385.525 18.3527C313.592 45.8738 286.884 128.977 220.827 164.097C163.567 194.703 86.7429 160.806 39.4654 214.13C6.38842 251.841 7.24181 310.024 25.598 354.083Z" fill="white"/>
<path d="M553.287 463.306H161.24C148.295 463.306 137.773 452.783 137.773 439.839V170.714C137.866 161.309 145.502 153.673 155 153.673H560.644C569.583 153.673 576.847 160.936 576.847 169.876V439.839C576.754 452.783 566.324 463.306 553.287 463.306Z" fill="#E0E0E0"/>
<path d="M553.288 463.306C553.288 463.306 553.567 463.306 554.219 463.213C554.499 463.213 554.964 463.213 555.43 463.12C555.895 463.12 556.454 462.934 557.013 462.934C557.292 462.84 557.665 462.841 558.037 462.747C558.41 462.654 558.689 462.561 559.061 462.468C559.434 462.375 559.807 462.282 560.272 462.189C560.645 462.002 561.11 461.909 561.483 461.723C562.321 461.444 563.252 460.978 564.183 460.512C564.649 460.233 565.115 459.954 565.58 459.674C565.859 459.488 566.046 459.395 566.325 459.209C566.604 459.022 566.791 458.836 567.07 458.65C569.026 457.253 570.981 455.298 572.657 452.783C574.334 450.269 575.637 447.196 576.196 443.75C576.289 443.285 576.289 442.912 576.382 442.447C576.475 441.981 576.475 441.515 576.475 441.05C576.569 440.118 576.569 439.187 576.569 438.256C576.569 436.3 576.569 434.345 576.569 432.296C576.569 428.199 576.569 423.822 576.569 419.166C576.569 382.196 576.569 328.557 576.475 262.44C576.475 245.864 576.475 228.543 576.475 210.478C576.475 201.445 576.475 192.225 576.475 182.82C576.475 180.492 576.475 178.071 576.475 175.743C576.475 174.532 576.475 173.415 576.475 172.204C576.475 170.993 576.475 169.783 576.382 168.665C576.103 163.916 573.496 159.446 569.584 156.652C567.629 155.256 565.301 154.418 562.88 154.045C562.6 154.045 562.321 153.952 561.948 153.952H561.017C560.458 153.952 559.806 153.952 559.155 153.952C557.944 153.952 556.733 153.952 555.43 153.952C550.494 153.952 545.466 153.952 540.437 153.952C530.38 153.952 520.136 153.952 509.799 153.952C489.033 153.952 467.708 153.952 445.917 153.952C358.382 153.952 262.279 153.952 161.241 153.952H156.491C155.746 153.952 154.908 153.952 154.163 153.952L153.046 154.045C152.673 154.045 152.301 154.138 151.928 154.231C151.556 154.231 151.183 154.324 150.811 154.418C150.438 154.511 150.066 154.604 149.693 154.697C148.948 154.976 148.203 155.163 147.552 155.535C146.341 156.187 145.037 157.025 143.827 158.049C142.616 159.074 141.685 160.284 140.754 161.495C139.915 162.799 139.264 164.195 138.798 165.685C138.425 167.175 138.053 168.665 138.053 170.248C137.96 171.832 138.053 173.321 138.053 174.905C138.053 187.383 138.053 199.768 138.053 212.061C138.053 236.645 138.053 260.857 138.053 284.696C138.053 332.282 138.053 378.192 138.053 421.96C138.053 427.454 138.053 432.855 138.053 438.256C138.053 439.653 138.146 440.957 138.239 442.26L138.519 444.216C138.612 444.868 138.798 445.52 138.984 446.172C139.729 448.686 140.94 451.107 142.43 453.249C145.503 457.533 150.066 460.699 155.094 462.096C155.746 462.282 156.305 462.468 156.957 462.561L158.913 462.84C160.216 462.934 161.52 463.027 162.824 462.934C165.431 462.934 168.039 462.934 170.646 462.934C191.412 462.934 211.527 462.934 230.99 462.934C269.915 462.934 306.14 462.934 339.198 462.934C405.409 462.934 458.954 463.027 495.924 463.027C514.456 463.027 528.797 463.027 538.574 463.027C543.417 463.027 547.142 463.027 549.656 463.027C552.077 463.213 553.288 463.306 553.288 463.306C553.288 463.306 551.984 463.306 549.47 463.306C546.956 463.306 543.231 463.306 538.388 463.306C528.61 463.306 514.269 463.306 495.738 463.306C458.768 463.306 405.223 463.306 339.012 463.399C305.954 463.399 269.729 463.399 230.803 463.399C211.341 463.399 191.226 463.399 170.46 463.399C167.852 463.399 165.245 463.399 162.637 463.399C161.334 463.399 160.03 463.306 158.726 463.306L156.771 463.027C156.119 462.934 155.467 462.747 154.815 462.561C149.693 461.164 145.037 457.998 141.964 453.528C140.381 451.386 139.17 448.872 138.425 446.265C138.239 445.613 138.053 444.961 137.96 444.309L137.681 442.26C137.587 440.864 137.494 439.56 137.494 438.163C137.494 432.762 137.494 427.361 137.494 421.866C137.494 378.099 137.494 332.189 137.494 284.603C137.494 260.764 137.494 236.552 137.494 211.967C137.494 199.675 137.494 187.29 137.494 174.811C137.494 173.228 137.494 171.738 137.494 170.155C137.494 168.572 137.867 166.989 138.239 165.499C138.705 164.009 139.357 162.519 140.288 161.216C141.219 159.912 142.15 158.608 143.454 157.677C144.665 156.652 145.968 155.721 147.458 155.069C148.203 154.697 148.948 154.511 149.693 154.138C150.066 154.045 150.438 153.952 150.811 153.859C151.183 153.766 151.556 153.673 152.021 153.579C152.394 153.486 152.766 153.486 153.232 153.393H154.443C155.281 153.3 156.026 153.393 156.771 153.393H161.52C262.465 153.393 358.661 153.393 446.197 153.393C468.08 153.393 489.406 153.393 510.079 153.393C520.416 153.393 530.659 153.393 540.716 153.393C545.745 153.393 550.774 153.393 555.709 153.393C556.92 153.393 558.223 153.393 559.434 153.393C560.086 153.393 560.645 153.393 561.296 153.393L562.228 153.486C562.507 153.486 562.88 153.579 563.159 153.579C565.58 153.952 568.001 154.883 569.957 156.28C573.961 159.074 576.662 163.73 576.941 168.572C577.034 169.783 577.034 170.993 577.034 172.204C577.034 173.415 577.034 174.625 577.034 175.743C577.034 178.071 577.034 180.492 577.034 182.82C577.034 192.225 577.034 201.445 577.034 210.478C577.034 228.543 577.034 245.864 577.034 262.44C577.034 328.65 576.941 382.196 576.941 419.166C576.941 423.822 576.941 428.199 576.941 432.296C576.941 434.345 576.941 436.3 576.941 438.256C576.941 439.187 576.941 440.118 576.848 441.05C576.848 441.515 576.848 441.981 576.755 442.447C576.662 442.912 576.662 443.378 576.569 443.75C576.01 447.289 574.613 450.362 572.937 452.876C571.261 455.391 569.212 457.346 567.256 458.743C566.977 458.929 566.791 459.116 566.511 459.302C566.232 459.488 566.046 459.581 565.766 459.767C565.301 460.047 564.835 460.326 564.37 460.606C563.438 461.071 562.507 461.537 561.669 461.816C561.203 462.002 560.831 462.096 560.458 462.282C560.086 462.375 559.62 462.468 559.248 462.561C558.875 462.654 558.503 462.747 558.13 462.84C557.758 462.934 557.478 462.934 557.106 463.027C556.454 463.12 555.988 463.213 555.523 463.213C555.057 463.213 554.685 463.213 554.312 463.306C553.66 463.213 553.288 463.306 553.288 463.306Z" fill="#263238"/>
<path d="M576.29 467.962H142.151C129.579 467.962 119.429 457.812 119.429 445.24V441.702C119.429 441.236 119.801 440.864 120.267 440.864H594.169C594.635 440.864 595.007 441.236 595.007 441.702V449.151C595.007 459.581 586.626 467.962 576.29 467.962Z" fill="#E0E0E0"/>
<path d="M576.291 467.962C576.291 467.962 576.477 467.962 576.943 467.962C577.409 467.869 577.967 467.962 578.806 467.776C580.482 467.59 582.996 467.031 585.79 465.355C587.187 464.517 588.677 463.399 589.98 461.909C591.377 460.419 592.588 458.557 593.519 456.322C594.45 454.087 594.916 451.573 594.916 448.779C594.916 447.382 594.916 445.985 594.916 444.495C594.916 443.75 594.916 443.005 594.916 442.26C594.916 441.888 594.916 441.516 594.636 441.236C594.357 440.957 593.985 441.05 593.612 441.05C568.655 441.05 532.523 441.05 487.918 441.143C398.613 441.143 275.318 441.143 139.079 441.236C134.796 441.236 130.605 441.236 126.321 441.236H123.155H121.572H120.827H120.362C120.268 441.236 120.175 441.236 120.082 441.329C119.896 441.422 119.803 441.609 119.71 441.702C119.71 441.888 119.71 442.167 119.71 442.447V444.03C119.71 445.054 119.71 446.172 119.803 447.196C119.989 449.245 120.362 451.293 121.107 453.249C121.386 454.273 121.945 455.111 122.41 456.043C122.969 456.881 123.435 457.812 124.087 458.65C126.508 462.003 129.86 464.61 133.678 466.193C135.541 466.938 137.589 467.497 139.638 467.683C141.687 467.869 143.735 467.869 145.784 467.869C149.882 467.869 153.979 467.869 158.076 467.869C166.271 467.869 174.373 467.869 182.381 467.869C214.509 467.869 245.519 467.869 275.039 467.869C334.079 467.869 387.252 467.869 431.858 467.962C476.464 467.962 512.595 468.056 537.552 468.056C550.031 468.056 559.715 468.056 566.327 468.056C569.586 468.056 572.101 468.056 573.777 468.056C575.453 467.962 576.291 467.962 576.291 467.962C576.291 467.962 575.453 467.962 573.777 467.962C572.101 467.962 569.586 467.962 566.327 467.962C559.715 467.962 550.031 467.962 537.552 467.962C512.595 467.962 476.464 467.962 431.858 468.056C387.252 468.056 334.079 468.056 275.039 468.149C245.519 468.149 214.509 468.149 182.381 468.149C174.373 468.149 166.271 468.149 158.076 468.149C153.979 468.149 149.882 468.149 145.784 468.149C143.735 468.149 141.687 468.149 139.545 467.962C137.496 467.683 135.448 467.217 133.492 466.379C129.674 464.796 126.135 462.096 123.714 458.743C123.062 457.905 122.597 456.974 122.038 456.043C121.572 455.111 121.107 454.18 120.734 453.156C119.989 451.2 119.524 449.058 119.337 447.01C119.244 445.985 119.244 444.961 119.244 443.937V442.354C119.244 442.074 119.244 441.888 119.244 441.515C119.337 441.143 119.617 440.957 119.896 440.771C120.082 440.677 120.268 440.677 120.362 440.677H120.734H121.572H123.155H126.321C130.512 440.677 134.796 440.677 139.079 440.677C275.318 440.677 398.613 440.771 487.918 440.771C532.523 440.771 568.655 440.864 593.612 440.864H594.171C594.357 440.864 594.636 440.957 594.73 441.143C594.916 441.329 595.009 441.516 595.009 441.702C595.009 441.888 595.009 442.074 595.009 442.26C595.009 443.005 595.009 443.75 595.009 444.495C595.009 445.985 595.009 447.382 595.009 448.779C595.009 451.573 594.543 454.18 593.612 456.415C592.681 458.65 591.377 460.513 590.073 462.003C588.677 463.492 587.28 464.703 585.79 465.448C582.903 467.124 580.389 467.683 578.806 467.869C577.967 468.056 577.316 467.962 576.943 468.056C576.571 467.962 576.291 467.962 576.291 467.962Z" fill="#263238"/>
<path d="M552.629 426.15H160.675C157.975 426.15 155.833 424.009 155.833 421.308V177.419C155.833 174.719 157.975 172.577 160.675 172.577H552.629C555.33 172.577 557.472 174.719 557.472 177.419V421.308C557.565 424.009 555.33 426.15 552.629 426.15Z" fill="#455A64"/>
<path d="M552.629 426.151C552.629 426.151 552.908 426.151 553.467 426.058C554.025 425.964 554.864 425.685 555.702 425.033C556.54 424.381 557.378 423.078 557.471 421.401C557.471 419.725 557.471 417.863 557.471 415.721C557.471 407.061 557.471 394.21 557.471 377.82C557.471 344.854 557.471 297.176 557.378 238.229C557.378 223.515 557.378 208.057 557.378 191.947C557.378 187.942 557.378 183.845 557.378 179.748V178.165C557.378 177.606 557.378 177.14 557.285 176.675C557.192 175.65 556.633 174.812 555.981 174.067C555.236 173.322 554.398 172.857 553.374 172.763C552.908 172.67 552.349 172.67 551.884 172.67H550.3C541.919 172.67 533.445 172.67 524.785 172.67C490.143 172.67 453.173 172.67 414.155 172.67C336.211 172.67 250.631 172.67 160.767 172.67C159.464 172.67 158.067 173.229 157.229 174.253C156.763 174.719 156.484 175.371 156.298 176.023C156.111 176.675 156.111 177.326 156.111 178.071C156.111 180.865 156.111 183.659 156.111 186.452C156.111 192.04 156.111 197.627 156.111 203.121C156.111 214.203 156.111 225.285 156.111 236.18C156.111 258.064 156.111 279.668 156.111 300.807C156.111 322.039 156.111 342.806 156.111 363.2C156.111 373.35 156.111 383.5 156.111 393.465C156.111 398.493 156.111 403.429 156.111 408.364C156.111 410.785 156.111 413.3 156.111 415.721C156.111 416.932 156.111 418.142 156.111 419.353C156.111 420.563 156.018 421.774 156.484 422.891C156.949 424.009 157.788 424.847 158.812 425.313C159.371 425.592 159.929 425.685 160.488 425.685C161.047 425.685 161.699 425.685 162.257 425.685C164.679 425.685 167.1 425.685 169.521 425.685C174.363 425.685 179.113 425.685 183.862 425.685C193.36 425.685 202.673 425.685 211.985 425.685C230.423 425.685 248.396 425.685 265.717 425.685C300.359 425.685 332.672 425.685 362.099 425.685C421.046 425.685 468.725 425.778 501.597 425.778C518.08 425.778 530.838 425.778 539.498 425.778C543.875 425.778 547.134 425.778 549.369 425.778C551.511 426.151 552.629 426.151 552.629 426.151C552.629 426.151 551.511 426.151 549.276 426.151C547.041 426.151 543.782 426.151 539.405 426.151C530.745 426.151 517.894 426.151 501.504 426.151C468.539 426.151 420.86 426.151 362.006 426.244C332.579 426.244 300.266 426.244 265.624 426.244C248.303 426.244 230.423 426.244 211.892 426.244C202.673 426.244 193.267 426.244 183.769 426.244C179.02 426.244 174.27 426.244 169.428 426.244C167.007 426.244 164.586 426.244 162.164 426.244C161.512 426.244 160.954 426.244 160.302 426.244C159.65 426.244 158.998 426.058 158.439 425.778C157.322 425.22 156.298 424.288 155.832 423.078C155.553 422.519 155.459 421.867 155.459 421.215V419.353C155.459 418.142 155.459 416.932 155.459 415.721C155.459 413.3 155.459 410.785 155.459 408.364C155.459 403.429 155.459 398.493 155.459 393.465C155.459 383.5 155.459 373.443 155.459 363.2C155.459 342.806 155.459 321.946 155.459 300.807C155.459 279.575 155.459 258.064 155.459 236.18C155.459 225.192 155.459 214.203 155.459 203.121C155.459 197.534 155.459 192.04 155.459 186.452C155.459 183.659 155.459 180.865 155.459 178.071C155.459 177.42 155.459 176.581 155.646 175.93C155.832 175.185 156.204 174.533 156.67 173.974C157.601 172.857 159.091 172.205 160.581 172.205C250.445 172.205 336.118 172.205 413.969 172.205C452.894 172.205 489.957 172.205 524.599 172.205C533.259 172.205 541.733 172.205 550.114 172.205H551.697C552.256 172.205 552.722 172.205 553.28 172.298C554.398 172.484 555.329 172.95 556.074 173.788C556.819 174.533 557.378 175.557 557.471 176.581C557.564 177.14 557.564 177.606 557.564 178.165V179.748C557.564 183.845 557.564 187.942 557.564 191.947C557.564 208.057 557.564 223.422 557.564 238.229C557.564 297.176 557.471 344.854 557.471 377.82C557.471 394.303 557.471 407.061 557.471 415.721C557.471 417.863 557.471 419.818 557.471 421.495C557.378 423.171 556.54 424.381 555.702 425.126C554.864 425.871 553.932 426.058 553.467 426.151C553.187 426.244 553.001 426.244 552.815 426.244C552.722 426.151 552.629 426.151 552.629 426.151Z" fill="#263238"/>
<path d="M314.054 440.397L319.921 450.362H402.986L408.481 440.397H314.054Z" fill="#263238"/>
<path d="M360.517 163.916C360.517 165.779 359.027 167.175 357.258 167.175C355.396 167.175 353.999 165.686 353.999 163.916C353.999 162.054 355.489 160.657 357.258 160.657C359.121 160.657 360.517 162.147 360.517 163.916Z" fill="#263238"/>
<path d="M419.56 318.966H294.682C293.937 318.966 293.285 318.314 293.285 317.569V298.199C293.285 297.454 293.937 296.803 294.682 296.803H419.653C420.398 296.803 421.05 297.454 421.05 298.199V317.569C420.957 318.407 420.305 318.966 419.56 318.966Z" fill="#F5F5F5"/>
<path d="M419.745 349.231H294.774C294.029 349.231 293.377 348.579 293.377 347.834V328.464C293.377 327.719 294.029 327.068 294.774 327.068H419.745C420.49 327.068 421.142 327.719 421.142 328.464V347.834C421.048 348.672 420.49 349.231 419.745 349.231Z" fill="#F5F5F5"/>
<path d="M302.039 307.791V304.904H302.784V307.791C302.784 308.909 303.343 309.467 304.181 309.467C305.112 309.467 305.578 309.002 305.578 307.791V304.904H306.323V307.791C306.323 309.281 305.485 310.026 304.181 310.026C302.877 310.026 302.039 309.281 302.039 307.791Z" fill="#263238"/>
<path d="M307.254 309.56L307.533 309.002C307.905 309.188 308.371 309.374 308.93 309.374C309.582 309.374 309.861 309.188 309.861 308.815C309.861 307.977 307.44 308.722 307.44 307.139C307.44 306.487 308.092 306.022 309.023 306.022C309.488 306.022 310.047 306.115 310.42 306.394L310.14 307.046C309.768 306.86 309.395 306.767 309.023 306.767C308.371 306.767 308.092 306.953 308.092 307.325C308.092 308.257 310.513 307.512 310.513 309.002C310.513 309.747 309.861 310.119 308.837 310.119C308.185 310.026 307.533 309.84 307.254 309.56Z" fill="#263238"/>
<path d="M314.889 308.257H311.723C311.816 308.909 312.375 309.374 313.12 309.374C313.586 309.374 313.958 309.188 314.237 308.909L314.61 309.374C314.237 309.747 313.772 310.026 313.12 310.026C311.909 310.026 311.071 309.188 311.071 308.071C311.071 306.953 311.909 306.115 313.027 306.115C314.144 306.115 314.889 306.953 314.889 308.071C314.889 308.164 314.889 308.257 314.889 308.257ZM311.723 307.791H314.237C314.144 307.139 313.679 306.674 313.027 306.674C312.282 306.674 311.816 307.139 311.723 307.791Z" fill="#263238"/>
<path d="M317.964 306.115V306.767C317.871 306.767 317.871 306.767 317.778 306.767C317.033 306.767 316.567 307.232 316.567 308.071V310.026H315.822V306.115H316.474V306.767C316.753 306.301 317.219 306.115 317.964 306.115Z" fill="#263238"/>
<path d="M322.433 307.791V310.026H321.688V307.884C321.688 307.139 321.316 306.767 320.664 306.767C319.919 306.767 319.453 307.232 319.453 308.07V310.026H318.708V306.115H319.36V306.674C319.64 306.301 320.105 306.022 320.757 306.022C321.781 306.115 322.433 306.674 322.433 307.791Z" fill="#263238"/>
<path d="M326.81 307.698V310.026H326.158V309.56C325.972 309.933 325.506 310.119 324.854 310.119C324.016 310.119 323.457 309.653 323.457 309.002C323.457 308.35 323.83 307.884 325.04 307.884H326.158V307.791C326.158 307.232 325.785 306.86 325.133 306.86C324.668 306.86 324.202 307.046 323.923 307.232L323.644 306.674C324.016 306.394 324.575 306.208 325.227 306.208C326.158 306.115 326.81 306.58 326.81 307.698ZM326.065 308.815V308.257H325.04C324.389 308.257 324.109 308.536 324.109 308.815C324.109 309.188 324.388 309.467 324.947 309.467C325.506 309.467 325.972 309.281 326.065 308.815Z" fill="#263238"/>
<path d="M334.539 307.791V310.026H333.794V307.884C333.794 307.139 333.422 306.767 332.77 306.767C332.025 306.767 331.653 307.232 331.653 308.07V310.026H330.908V307.884C330.908 307.139 330.535 306.767 329.883 306.767C329.138 306.767 328.766 307.232 328.766 308.07V310.026H328.021V306.115H328.673V306.674C328.952 306.301 329.418 306.022 329.976 306.022C330.535 306.022 331.094 306.208 331.28 306.767C331.559 306.301 332.118 306.022 332.77 306.022C333.887 306.115 334.539 306.674 334.539 307.791Z" fill="#263238"/>
<path d="M339.289 308.257H336.122C336.216 308.909 336.774 309.374 337.519 309.374C337.985 309.374 338.357 309.188 338.637 308.909L339.009 309.374C338.637 309.747 338.171 310.026 337.519 310.026C336.309 310.026 335.471 309.188 335.471 308.071C335.471 306.953 336.309 306.115 337.426 306.115C338.544 306.115 339.289 306.953 339.289 308.071C339.289 308.164 339.289 308.257 339.289 308.257ZM336.122 307.791H338.637C338.544 307.139 338.078 306.674 337.426 306.674C336.681 306.674 336.216 307.139 336.122 307.791Z" fill="#263238"/>
<path d="M419.932 383.407H294.961C294.216 383.407 293.564 382.755 293.564 382.01V362.64C293.564 361.895 294.216 361.244 294.961 361.244H419.932C420.677 361.244 421.329 361.895 421.329 362.64V382.01C421.236 382.848 420.677 383.407 419.932 383.407Z" fill="#5367FC"/>
<path d="M345.898 369.997H347.295V374.002H349.716V375.119H345.805V369.997H345.898Z" fill="white"/>
<path d="M349.996 373.163C349.996 371.953 350.927 371.115 352.231 371.115C353.534 371.115 354.466 371.953 354.466 373.163C354.466 374.374 353.534 375.212 352.231 375.212C351.02 375.212 349.996 374.281 349.996 373.163ZM353.069 373.163C353.069 372.605 352.696 372.232 352.231 372.232C351.765 372.232 351.392 372.605 351.392 373.163C351.392 373.722 351.765 374.095 352.231 374.095C352.696 374.095 353.069 373.722 353.069 373.163Z" fill="white"/>
<path d="M359.401 371.115V374.374C359.401 375.864 358.563 376.609 357.073 376.609C356.328 376.609 355.583 376.423 355.117 376.05L355.583 375.119C355.955 375.398 356.421 375.585 356.886 375.585C357.631 375.585 357.911 375.212 357.911 374.653V374.56C357.631 374.84 357.259 375.026 356.7 375.026C355.676 375.026 354.745 374.281 354.745 373.07C354.745 371.953 355.676 371.208 356.7 371.208C357.259 371.208 357.631 371.394 357.911 371.767V371.301H359.401V371.115ZM358.004 372.977C358.004 372.512 357.631 372.139 357.166 372.139C356.7 372.139 356.328 372.418 356.328 372.977C356.328 373.536 356.7 373.815 357.166 373.815C357.631 373.815 358.004 373.443 358.004 372.977Z" fill="white"/>
<path d="M362.474 369.997H363.871V375.119H362.474V369.997Z" fill="white"/>
<path d="M369.086 372.884V375.119H367.689V373.07C367.689 372.512 367.41 372.232 367.037 372.232C366.571 372.232 366.292 372.512 366.292 373.163V375.119H364.895V371.208H366.199V371.673C366.478 371.301 366.944 371.208 367.41 371.208C368.341 371.115 369.086 371.58 369.086 372.884Z" fill="white"/>
<path d="M303.341 338.335C303.341 339.36 302.503 340.291 301.386 340.291C300.361 340.291 299.43 339.453 299.43 338.335C299.43 337.311 300.268 336.38 301.386 336.38C302.503 336.473 303.341 337.311 303.341 338.335Z" fill="#263238"/>
<path d="M309.395 338.335C309.395 339.36 308.556 340.291 307.439 340.291C306.415 340.291 305.483 339.453 305.483 338.335C305.483 337.311 306.322 336.38 307.439 336.38C308.556 336.473 309.395 337.311 309.395 338.335Z" fill="#263238"/>
<path d="M315.448 338.335C315.448 339.36 314.61 340.291 313.492 340.291C312.468 340.291 311.537 339.453 311.537 338.335C311.537 337.311 312.375 336.38 313.492 336.38C314.61 336.473 315.448 337.311 315.448 338.335Z" fill="#263238"/>
<path d="M321.499 338.335C321.499 339.36 320.661 340.291 319.543 340.291C318.519 340.291 317.588 339.453 317.588 338.335C317.588 337.311 318.426 336.38 319.543 336.38C320.568 336.473 321.499 337.311 321.499 338.335Z" fill="#263238"/>
<path d="M327.461 338.335C327.461 339.36 326.622 340.291 325.505 340.291C324.481 340.291 323.549 339.453 323.549 338.335C323.549 337.311 324.388 336.38 325.505 336.38C326.622 336.473 327.461 337.311 327.461 338.335Z" fill="#263238"/>
<path d="M333.514 338.335C333.514 339.36 332.676 340.291 331.558 340.291C330.534 340.291 329.603 339.453 329.603 338.335C329.603 337.311 330.441 336.38 331.558 336.38C332.676 336.473 333.514 337.311 333.514 338.335Z" fill="#263238"/>
<path d="M339.567 338.335C339.567 339.36 338.729 340.291 337.611 340.291C336.587 340.291 335.656 339.453 335.656 338.335C335.656 337.311 336.494 336.38 337.611 336.38C338.729 336.473 339.567 337.311 339.567 338.335Z" fill="#263238"/>
<path d="M345.618 338.335C345.618 339.36 344.78 340.291 343.663 340.291C342.638 340.291 341.707 339.453 341.707 338.335C341.707 337.311 342.545 336.38 343.663 336.38C344.78 336.473 345.618 337.311 345.618 338.335Z" fill="#263238"/>
<path d="M411.085 336.938H410.619V336.193C410.619 334.89 409.595 333.772 408.198 333.772C406.894 333.772 405.777 334.797 405.777 336.193V336.938H405.125C404.659 336.938 404.287 337.311 404.287 337.777V341.595C404.287 342.06 404.659 342.433 405.125 342.433H411.085C411.55 342.433 411.923 342.06 411.923 341.595V337.777C412.016 337.311 411.643 336.938 411.085 336.938ZM409.036 341.315H407.267L407.732 340.105C407.36 339.918 407.174 339.639 407.174 339.267C407.174 338.708 407.639 338.242 408.198 338.242C408.757 338.242 409.222 338.708 409.222 339.267C409.222 339.639 408.943 340.012 408.664 340.198L409.036 341.315ZM409.874 336.938H406.522V336.193C406.522 335.262 407.267 334.517 408.198 334.517C409.129 334.517 409.874 335.262 409.874 336.193V336.938Z" fill="#E0E0E0"/>
<path d="M389.676 242.694C392.585 224.564 380.246 207.51 362.117 204.602C343.987 201.693 326.933 214.032 324.025 232.162C321.116 250.291 333.455 267.345 351.585 270.254C369.714 273.162 386.768 260.823 389.676 242.694Z" fill="#FAFAFA"/>
<path d="M390.133 237.484C390.133 237.484 390.133 237.297 390.04 236.925C390.04 236.552 389.947 235.994 389.947 235.342C389.947 234.969 389.947 234.597 389.854 234.224C389.854 233.759 389.76 233.293 389.667 232.827C389.481 231.803 389.388 230.686 389.015 229.382C388.457 226.774 387.246 223.794 385.29 220.535C383.335 217.369 380.634 214.017 376.816 211.13C373.091 208.336 368.342 205.915 362.848 204.984C361.451 204.797 360.054 204.518 358.657 204.518C357.912 204.518 357.261 204.425 356.516 204.425C355.771 204.425 355.026 204.518 354.281 204.518C353.908 204.518 353.536 204.518 353.163 204.611L352.046 204.797C351.301 204.891 350.556 204.984 349.811 205.17C348.321 205.542 346.831 205.822 345.434 206.474C343.944 206.939 342.547 207.684 341.15 208.336C340.498 208.709 339.753 209.174 339.102 209.547C338.357 209.919 337.798 210.385 337.146 210.944C335.842 211.875 334.632 212.992 333.421 214.11C332.304 215.32 331.186 216.531 330.162 217.928C328.206 220.628 326.437 223.701 325.412 227.054C324.295 230.406 323.736 233.852 323.736 237.484C323.829 241.115 324.388 244.561 325.412 247.913C325.692 248.751 325.971 249.59 326.344 250.334C326.716 251.079 327.089 251.918 327.461 252.663C327.647 253.035 327.834 253.408 328.113 253.78L328.765 254.898L329.417 256.015L330.162 257.039C331.093 258.436 332.304 259.647 333.421 260.857C334.632 261.975 335.842 263.092 337.146 264.024C337.798 264.489 338.45 265.048 339.102 265.42C339.753 265.793 340.498 266.258 341.15 266.631C342.547 267.283 343.944 268.028 345.434 268.493C346.831 269.052 348.414 269.425 349.811 269.797C350.556 269.983 351.301 270.077 352.046 270.17L353.163 270.356C353.536 270.449 353.908 270.356 354.281 270.449C355.026 270.449 355.771 270.542 356.516 270.542C357.261 270.542 357.912 270.449 358.657 270.449C360.054 270.449 361.451 270.17 362.848 269.983C368.342 269.052 372.998 266.631 376.816 263.837C380.541 260.95 383.335 257.691 385.29 254.432C387.153 251.173 388.364 248.193 389.015 245.585C389.388 244.281 389.574 243.164 389.667 242.14C389.76 241.674 389.854 241.208 389.854 240.743C389.854 240.277 389.947 239.905 389.947 239.625C389.947 238.973 390.04 238.415 390.04 238.042C390.133 237.67 390.133 237.484 390.133 237.484C390.133 237.484 390.133 237.67 390.133 238.042C390.133 238.415 390.133 238.973 390.04 239.625C390.04 239.998 390.04 240.37 389.947 240.836C389.947 241.302 389.854 241.767 389.76 242.233C389.574 243.257 389.481 244.375 389.109 245.678C388.55 248.286 387.339 251.359 385.477 254.618C383.614 257.877 380.821 261.23 377.003 264.117C373.278 267.003 368.435 269.425 362.941 270.449C361.544 270.635 360.147 270.915 358.75 270.915C358.005 270.915 357.26 271.008 356.609 271.008C355.864 271.008 355.119 270.915 354.374 270.915C354.001 270.915 353.629 270.915 353.256 270.822L352.139 270.635C351.394 270.542 350.649 270.449 349.904 270.263C348.414 269.89 346.924 269.611 345.434 268.959C343.944 268.493 342.547 267.748 341.057 267.003C340.312 266.631 339.66 266.165 339.008 265.793C338.263 265.42 337.612 264.862 336.96 264.396C335.563 263.465 334.445 262.254 333.142 261.137C332.024 259.926 330.814 258.716 329.882 257.226L329.137 256.201L328.486 255.084L327.834 253.966C327.554 253.594 327.368 253.221 327.182 252.849C326.809 252.104 326.437 251.266 326.064 250.521C325.785 249.683 325.412 248.845 325.133 248.006C324.016 244.654 323.457 241.022 323.364 237.39C323.457 233.759 324.016 230.22 325.133 226.774C326.157 223.422 327.927 220.349 329.975 217.555C330.907 216.158 332.117 214.948 333.235 213.644C334.445 212.527 335.656 211.316 337.053 210.385C337.705 209.919 338.357 209.36 339.102 208.988C339.847 208.615 340.498 208.15 341.15 207.777C342.64 207.125 344.037 206.38 345.527 205.822C347.017 205.263 348.507 204.891 349.997 204.518C350.742 204.332 351.487 204.239 352.232 204.146L353.349 203.959C353.722 203.866 354.094 203.959 354.467 203.866C355.212 203.866 355.957 203.773 356.702 203.773C357.447 203.773 358.192 203.866 358.844 203.866C360.334 203.866 361.73 204.146 363.034 204.332C368.528 205.356 373.371 207.777 377.096 210.664C380.914 213.551 383.614 216.903 385.57 220.163C387.432 223.422 388.643 226.495 389.202 229.102C389.574 230.406 389.667 231.524 389.854 232.548C389.947 233.014 390.04 233.479 390.04 233.945C390.04 234.41 390.04 234.783 390.133 235.155C390.133 235.807 390.133 236.366 390.226 236.739C390.133 237.297 390.133 237.484 390.133 237.484Z" fill="#263238"/>
<path d="M360.141 237.949C362.935 236.831 364.984 234.131 364.984 230.871C364.984 226.681 361.631 223.235 357.441 223.235C353.25 223.235 349.805 226.588 349.805 230.778C349.805 234.038 351.76 236.738 354.647 237.856C342.914 239.532 343.472 251.452 343.472 251.452L371.13 251.545C371.13 251.731 371.782 239.625 360.141 237.949Z" fill="#E0E0E0"/>
<path d="M298.125 398.307H294.121C293.469 398.307 293.003 397.748 293.003 397.189V393.185C293.003 392.533 293.562 392.067 294.121 392.067H298.125C298.777 392.067 299.242 392.626 299.242 393.185V397.189C299.335 397.748 298.777 398.307 298.125 398.307ZM294.121 392.44C293.748 392.44 293.469 392.719 293.469 393.092V397.096C293.469 397.468 293.748 397.748 294.121 397.748H298.125C298.497 397.748 298.777 397.468 298.777 397.096V393.092C298.777 392.719 298.497 392.44 298.125 392.44H294.121Z" fill="#E0E0E0"/>
<path d="M305.761 397.468L304.923 396.258C304.83 396.258 304.83 396.258 304.737 396.258H303.806V397.468H303.061V393.464H304.737C305.761 393.464 306.413 394.023 306.413 394.861C306.413 395.513 306.134 395.885 305.575 396.165L306.506 397.468H305.761ZM304.83 394.023H303.992V395.606H304.83C305.482 395.606 305.854 395.327 305.854 394.768C305.761 394.302 305.482 394.023 304.83 394.023Z" fill="white"/>
<path d="M310.139 396.165H307.718C307.811 396.63 308.183 396.91 308.742 396.91C309.114 396.91 309.394 396.817 309.58 396.537L309.952 397.003C309.673 397.375 309.208 397.469 308.742 397.469C307.718 397.469 307.066 396.817 307.066 395.885C307.066 394.954 307.718 394.302 308.649 394.302C309.58 394.302 310.232 394.954 310.232 395.885C310.232 395.979 310.139 396.072 310.139 396.165ZM307.718 395.699H309.487C309.394 395.234 309.114 394.954 308.649 394.954C308.183 394.954 307.811 395.234 307.718 395.699Z" fill="white"/>
<path d="M316.006 395.699V397.469H315.261V395.792C315.261 395.234 314.981 394.954 314.609 394.954C314.143 394.954 313.771 395.234 313.771 395.885V397.469H313.026V395.792C313.026 395.234 312.746 394.954 312.374 394.954C311.908 394.954 311.536 395.234 311.536 395.885V397.469H310.791V394.396H311.443V394.768C311.629 394.489 312.001 394.302 312.467 394.302C312.932 394.302 313.305 394.489 313.491 394.768C313.771 394.489 314.143 394.302 314.609 394.302C315.54 394.302 316.006 394.768 316.006 395.699Z" fill="white"/>
<path d="M319.822 396.165H317.401C317.494 396.63 317.866 396.91 318.425 396.91C318.798 396.91 319.077 396.817 319.263 396.537L319.636 397.003C319.356 397.375 318.891 397.469 318.425 397.469C317.401 397.469 316.749 396.817 316.749 395.885C316.749 394.954 317.401 394.302 318.332 394.302C319.263 394.302 319.915 394.954 319.915 395.885C319.822 395.979 319.822 396.072 319.822 396.165ZM317.401 395.699H319.17C319.077 395.234 318.798 394.954 318.332 394.954C317.866 394.954 317.494 395.234 317.401 395.699Z" fill="white"/>
<path d="M325.689 395.699V397.469H324.944V395.792C324.944 395.234 324.664 394.954 324.292 394.954C323.826 394.954 323.454 395.234 323.454 395.885V397.469H322.709V395.792C322.709 395.234 322.429 394.954 322.057 394.954C321.591 394.954 321.219 395.234 321.219 395.885V397.469H320.474V394.396H321.126V394.768C321.312 394.489 321.684 394.302 322.15 394.302C322.616 394.302 322.988 394.489 323.174 394.768C323.454 394.489 323.826 394.302 324.292 394.302C325.13 394.302 325.689 394.768 325.689 395.699Z" fill="white"/>
<path d="M329.881 395.885C329.881 396.817 329.229 397.469 328.298 397.469C327.832 397.469 327.553 397.282 327.273 397.003V397.375H326.621V393.092H327.366V394.675C327.646 394.395 327.925 394.302 328.391 394.302C329.229 394.302 329.881 394.954 329.881 395.885ZM329.136 395.885C329.136 395.327 328.763 394.954 328.205 394.954C327.646 394.954 327.273 395.327 327.273 395.885C327.273 396.444 327.646 396.817 328.205 396.817C328.763 396.91 329.136 396.537 329.136 395.885Z" fill="white"/>
<path d="M333.419 396.165H330.998C331.091 396.63 331.464 396.91 332.023 396.91C332.395 396.91 332.675 396.817 332.861 396.537L333.233 397.003C332.954 397.375 332.488 397.469 332.023 397.469C330.998 397.469 330.346 396.817 330.346 395.885C330.346 394.954 330.998 394.302 331.93 394.302C332.861 394.302 333.513 394.954 333.513 395.885C333.419 395.979 333.419 396.072 333.419 396.165ZM330.998 395.699H332.768C332.675 395.234 332.395 394.954 331.93 394.954C331.464 394.954 331.091 395.234 330.998 395.699Z" fill="white"/>
<path d="M335.934 394.302V394.954C335.841 394.954 335.841 394.954 335.748 394.954C335.189 394.954 334.816 395.234 334.816 395.885V397.375H334.071V394.302H334.723V394.768C335.003 394.489 335.375 394.302 335.934 394.302Z" fill="white"/>
<path d="M343.289 395.699V397.469H342.544V395.792C342.544 395.234 342.265 394.954 341.893 394.954C341.427 394.954 341.054 395.234 341.054 395.885V397.469H340.309V395.792C340.309 395.234 340.03 394.954 339.658 394.954C339.192 394.954 338.819 395.234 338.819 395.885V397.469H338.074V394.396H338.726V394.768C338.913 394.489 339.285 394.302 339.751 394.302C340.216 394.302 340.589 394.489 340.775 394.768C341.054 394.489 341.427 394.302 341.893 394.302C342.731 394.302 343.289 394.768 343.289 395.699Z" fill="white"/>
<path d="M347.108 396.165H344.687C344.78 396.63 345.152 396.91 345.711 396.91C346.083 396.91 346.363 396.817 346.549 396.537L346.922 397.003C346.642 397.375 346.177 397.469 345.711 397.469C344.687 397.469 344.035 396.817 344.035 395.885C344.035 394.954 344.687 394.302 345.618 394.302C346.549 394.302 347.201 394.954 347.201 395.885C347.108 395.979 347.108 396.072 347.108 396.165ZM344.687 395.699H346.456C346.363 395.234 346.084 394.954 345.618 394.954C345.059 394.954 344.78 395.234 344.687 395.699Z" fill="white"/>
<path d="M368.992 394.023V395.234H370.948V395.886H368.992V397.469H368.247V393.464H371.227V394.116H368.992V394.023Z" fill="white"/>
<path d="M371.506 395.885C371.506 394.954 372.158 394.302 373.183 394.302C374.114 394.302 374.859 394.954 374.859 395.885C374.859 396.817 374.207 397.469 373.183 397.469C372.158 397.469 371.506 396.817 371.506 395.885ZM374.021 395.885C374.021 395.327 373.648 394.954 373.089 394.954C372.531 394.954 372.158 395.327 372.158 395.885C372.158 396.444 372.531 396.817 373.089 396.817C373.648 396.91 374.021 396.537 374.021 395.885Z" fill="white"/>
<path d="M377.279 394.302V394.954C377.186 394.954 377.186 394.954 377.093 394.954C376.534 394.954 376.162 395.234 376.162 395.885V397.375H375.417V394.302H376.069V394.768C376.348 394.489 376.721 394.302 377.279 394.302Z" fill="white"/>
<path d="M380.912 394.396V397.003C380.912 398.121 380.353 398.586 379.236 398.586C378.677 398.586 378.118 398.4 377.746 398.121L378.025 397.562C378.304 397.748 378.77 397.934 379.143 397.934C379.794 397.934 380.167 397.655 380.167 397.003V396.817C379.888 397.096 379.515 397.189 379.143 397.189C378.304 397.189 377.559 396.631 377.559 395.699C377.559 394.768 378.211 394.209 379.143 394.209C379.608 394.209 379.981 394.302 380.167 394.675V394.303H380.912V394.396ZM380.167 395.792C380.167 395.234 379.794 394.954 379.236 394.954C378.677 394.954 378.304 395.327 378.304 395.792C378.304 396.351 378.677 396.631 379.236 396.631C379.794 396.724 380.167 396.351 380.167 395.792Z" fill="white"/>
<path d="M381.564 395.885C381.564 394.954 382.216 394.302 383.241 394.302C384.172 394.302 384.917 394.954 384.917 395.885C384.917 396.817 384.265 397.469 383.241 397.469C382.309 397.469 381.564 396.817 381.564 395.885ZM384.079 395.885C384.079 395.327 383.706 394.954 383.148 394.954C382.589 394.954 382.216 395.327 382.216 395.885C382.216 396.444 382.589 396.817 383.148 396.817C383.706 396.91 384.079 396.537 384.079 395.885Z" fill="white"/>
<path d="M387.337 397.282C387.15 397.375 386.871 397.469 386.685 397.469C386.033 397.469 385.66 397.096 385.66 396.444V394.954H385.195V394.396H385.66V393.651H386.405V394.396H387.243V394.954H386.405V396.444C386.405 396.724 386.592 396.91 386.871 396.91C387.057 396.91 387.15 396.91 387.243 396.817L387.337 397.282Z" fill="white"/>
<path d="M393.018 394.861C393.018 395.792 392.366 396.258 391.342 396.258H390.41V397.375H389.665V393.371H391.342C392.366 393.371 393.018 393.93 393.018 394.861ZM392.273 394.861C392.273 394.395 391.9 394.023 391.249 394.023H390.41V395.606H391.249C391.9 395.606 392.273 395.327 392.273 394.861Z" fill="white"/>
<path d="M396.184 395.606V397.376H395.532V397.003C395.346 397.282 395.066 397.376 394.601 397.376C393.856 397.376 393.483 397.003 393.483 396.444C393.483 395.979 393.856 395.513 394.787 395.513H395.625C395.625 395.047 395.345 394.861 394.88 394.861C394.507 394.861 394.135 394.954 393.949 395.141L393.669 394.582C394.042 394.302 394.507 394.209 394.973 394.209C395.718 394.302 396.184 394.768 396.184 395.606ZM395.532 396.444V396.072H394.787C394.321 396.072 394.135 396.258 394.135 396.444C394.135 396.724 394.321 396.91 394.694 396.91C395.066 397.003 395.346 396.817 395.532 396.444Z" fill="white"/>
<path d="M396.835 397.096L397.114 396.537C397.394 396.724 397.766 396.817 398.139 396.817C398.604 396.817 398.791 396.724 398.791 396.444C398.791 395.886 396.928 396.444 396.928 395.141C396.928 394.582 397.487 394.209 398.325 394.209C398.698 394.209 399.163 394.302 399.443 394.489L399.163 395.047C398.884 394.861 398.604 394.861 398.325 394.861C397.859 394.861 397.673 395.047 397.673 395.234C397.673 395.886 399.536 395.327 399.536 396.537C399.536 397.096 398.977 397.469 398.139 397.469C397.58 397.469 397.114 397.376 396.835 397.096Z" fill="white"/>
<path d="M399.723 397.096L400.003 396.537C400.282 396.724 400.655 396.817 401.027 396.817C401.493 396.817 401.679 396.724 401.679 396.444C401.679 395.886 399.816 396.444 399.816 395.141C399.816 394.582 400.375 394.209 401.213 394.209C401.586 394.209 402.051 394.302 402.331 394.489L402.051 395.047C401.772 394.861 401.493 394.861 401.213 394.861C400.748 394.861 400.561 395.047 400.561 395.234C400.561 395.886 402.424 395.327 402.424 396.537C402.424 397.096 401.865 397.469 401.027 397.469C400.561 397.469 400.003 397.376 399.723 397.096Z" fill="white"/>
<path d="M407.825 394.396L406.707 397.469H406.055L405.217 395.327L404.379 397.469H403.727L402.61 394.396H403.262L404.1 396.631L404.938 394.396H405.497L406.335 396.631L407.173 394.396H407.825Z" fill="white"/>
<path d="M408.01 395.885C408.01 394.954 408.662 394.302 409.686 394.302C410.617 394.302 411.362 394.954 411.362 395.885C411.362 396.817 410.71 397.469 409.686 397.469C408.662 397.469 408.01 396.817 408.01 395.885ZM410.524 395.885C410.524 395.327 410.152 394.954 409.593 394.954C409.034 394.954 408.662 395.327 408.662 395.885C408.662 396.444 409.034 396.817 409.593 396.817C410.152 396.91 410.524 396.537 410.524 395.885Z" fill="white"/>
<path d="M413.692 394.302V394.954C413.599 394.954 413.599 394.954 413.506 394.954C412.947 394.954 412.574 395.234 412.574 395.885V397.375H411.829V394.302H412.481V394.768C412.854 394.489 413.226 394.302 413.692 394.302Z" fill="white"/>
<path d="M417.322 393.185V397.469H416.67V397.096C416.391 397.375 416.112 397.562 415.646 397.562C414.715 397.562 414.063 396.91 414.063 395.979C414.063 395.047 414.715 394.396 415.646 394.396C416.018 394.396 416.391 394.489 416.67 394.768V393.185H417.322ZM416.577 395.885C416.577 395.327 416.205 394.954 415.646 394.954C415.087 394.954 414.715 395.327 414.715 395.885C414.715 396.444 415.087 396.817 415.646 396.817C416.205 396.91 416.577 396.537 416.577 395.885Z" fill="white"/>
<path d="M420.023 394.489C420.023 394.209 419.743 393.93 419.278 393.93C418.812 393.93 418.533 394.116 418.346 394.396L417.788 394.023C418.067 393.558 418.626 393.278 419.371 393.278C420.209 393.278 420.768 393.651 420.768 394.303C420.768 395.234 419.743 395.327 419.743 395.979H419.091C419.091 395.234 420.023 395.047 420.023 394.489ZM418.998 397.003C418.998 396.724 419.185 396.537 419.464 396.537C419.743 396.537 419.93 396.724 419.93 397.003C419.93 397.282 419.743 397.469 419.464 397.469C419.185 397.469 418.998 397.282 418.998 397.003Z" fill="white"/>
<g opacity="0.25">
<path d="M295.89 396.444C295.797 396.444 295.704 396.444 295.704 396.351L294.772 395.606C294.586 395.513 294.586 395.234 294.679 395.14C294.772 394.954 295.052 394.954 295.145 395.047L295.797 395.606L297.38 393.93C297.473 393.744 297.752 393.744 297.846 393.93C298.032 394.023 298.032 394.302 297.846 394.395L296.076 396.351C296.076 396.444 295.983 396.444 295.89 396.444Z" fill="white"/>
</g>
<path d="M410.065 308.07C410.996 307.697 411.648 306.766 411.648 305.556C411.648 304.066 410.53 302.855 409.133 302.855C407.736 302.855 406.619 304.066 406.619 305.556C406.619 306.673 407.271 307.697 408.202 308.07C404.384 308.629 404.477 312.819 404.477 312.819H413.603C413.696 312.912 413.883 308.722 410.065 308.07Z" fill="#E0E0E0"/>
<path d="M340.311 279.016H342.453V284.883H346.085V286.559H340.311V279.016Z" fill="#FAFAFA"/>
<path d="M346.457 283.672C346.457 281.903 347.854 280.692 349.809 280.692C351.765 280.692 353.162 281.903 353.162 283.672C353.162 285.442 351.765 286.745 349.809 286.745C347.854 286.745 346.457 285.442 346.457 283.672ZM351.02 283.672C351.02 282.741 350.461 282.275 349.809 282.275C349.157 282.275 348.598 282.741 348.598 283.672C348.598 284.604 349.157 285.069 349.809 285.069C350.461 285.069 351.02 284.604 351.02 283.672Z" fill="#FAFAFA"/>
<path d="M360.333 280.786V285.535C360.333 287.77 359.122 288.794 356.887 288.794C355.77 288.794 354.653 288.515 354.001 288.049L354.746 286.652C355.211 287.025 356.049 287.304 356.701 287.304C357.819 287.304 358.284 286.839 358.284 285.907V285.628C357.912 286.094 357.26 286.28 356.515 286.28C354.932 286.28 353.628 285.162 353.628 283.486C353.628 281.81 354.932 280.692 356.515 280.692C357.353 280.692 357.912 280.972 358.377 281.531V280.786H360.333ZM358.284 283.486C358.284 282.741 357.726 282.275 356.981 282.275C356.236 282.275 355.677 282.741 355.677 283.486C355.677 284.231 356.236 284.697 356.981 284.697C357.726 284.697 358.284 284.231 358.284 283.486Z" fill="#FAFAFA"/>
<path d="M364.896 279.016H367.038V286.559H364.896V279.016Z" fill="#FAFAFA"/>
<path d="M374.673 283.3V286.652H372.624V283.672C372.624 282.834 372.251 282.462 371.693 282.462C371.041 282.462 370.482 282.834 370.482 283.859V286.652H368.433V280.786H370.389V281.437C370.855 280.972 371.506 280.692 372.251 280.692C373.648 280.692 374.673 281.437 374.673 283.3Z" fill="#FAFAFA"/>
<path d="M534.931 195.112H519.566C518.914 195.112 518.449 194.646 518.449 193.994V186.358C518.449 185.707 518.914 185.241 519.566 185.241H534.931C535.024 185.241 535.118 185.241 535.118 185.334C535.211 185.427 535.211 185.427 535.211 185.52V188.035H536.887C537.073 188.035 537.166 188.128 537.166 188.314V192.039C537.166 192.225 537.073 192.318 536.887 192.318H535.211V194.833C535.211 195.019 535.024 195.112 534.931 195.112ZM534.652 185.8H519.566C519.287 185.8 519.007 186.079 519.007 186.358V193.994C519.007 194.274 519.287 194.553 519.566 194.553H534.652V192.039C534.652 191.853 534.745 191.76 534.931 191.76H536.608V188.593H534.931C534.745 188.593 534.652 188.5 534.652 188.314V185.8Z" fill="#263238"/>
<path d="M520.219 192.412V188.035C520.219 187.476 520.684 187.104 521.15 187.104H528.414C528.972 187.104 529.345 187.569 529.345 188.035V189.898V190.549V192.412C529.345 192.971 528.879 193.343 528.414 193.343H521.15C520.684 193.343 520.219 192.877 520.219 192.412Z" fill="#263238"/>
<path opacity="0.15" d="M82.6472 457.596C95.0794 457.596 105.158 455.675 105.158 453.307C105.158 450.938 95.0794 449.018 82.6472 449.018C70.215 449.018 60.1367 450.938 60.1367 453.307C60.1367 455.675 70.215 457.596 82.6472 457.596Z" fill="#1F3C88"/>
<path d="M72.341 444.966C67.4598 444.966 62.0573 437.834 62.0573 433C62.0573 428.095 65.967 424.091 70.7771 424.091C75.5872 424.091 79.497 428.095 79.497 433C79.497 437.644 77.5539 444.966 72.341 444.966ZM70.7771 427.076C67.6019 427.076 65.0192 429.754 65.0192 433.024C65.0192 436.649 69.4028 442.028 72.341 442.028C75.0422 442.028 76.535 436.697 76.535 433.024C76.535 429.73 73.9523 427.076 70.7771 427.076Z" fill="#1F3C88"/>
<path d="M89.1639 452.691H76.3448C74.2122 452.691 72.4351 451.056 72.2692 448.947L69.6154 416.982H96.4147L93.2395 448.994C93.0263 451.08 91.2728 452.691 89.1639 452.691Z" fill="#1F3C88"/>
<path d="M72.7439 378.69C71.8435 381.7 71.4407 384.78 71.962 387.766C72.2226 389.259 72.6491 390.704 73.2178 392.078C73.8102 393.453 74.5684 394.78 75.4215 396.059C76.2982 397.315 77.246 398.523 78.2886 399.661C78.5492 399.921 78.8099 400.277 79.0942 400.609C79.3549 400.94 79.6392 401.248 79.8999 401.604L80.6107 402.694C80.8477 403.049 81.0136 403.499 81.2031 403.878C81.4164 404.258 81.5112 404.732 81.6296 405.158C81.7718 405.585 81.7955 406.058 81.8666 406.509C81.8903 406.746 81.8903 406.959 81.8666 407.196L81.8192 407.883C81.7955 408.12 81.7244 408.333 81.677 408.546C81.6296 408.76 81.5822 408.997 81.4875 409.21L81.2268 409.85C81.132 410.039 81.0136 410.229 80.8951 410.442C80.8003 410.632 80.6581 410.821 80.516 410.987C80.3738 411.153 80.2553 411.342 80.1131 411.508C79.5208 412.172 78.881 412.693 78.099 413.12L77.6014 412.338C78.6914 411.366 79.5918 410.063 79.8999 408.736C79.971 408.57 79.971 408.404 79.9947 408.238C80.0184 408.073 80.0421 407.907 80.0421 407.741L80.0184 407.243C80.0184 407.077 80.0184 406.911 79.971 406.746C79.8999 406.414 79.8762 406.082 79.7103 405.75C79.5918 405.419 79.4971 405.087 79.3075 404.779C79.1179 404.471 78.9995 404.139 78.7625 403.855L78.1227 402.954C77.8858 402.67 77.6251 402.409 77.3882 402.125L76.6062 401.272C76.0376 400.68 75.4926 400.064 74.9713 399.424C74.4263 398.808 73.9524 398.121 73.4785 397.433C72.578 396.035 71.725 394.566 71.1326 393.002C70.5403 391.415 70.1137 389.756 69.9716 388.074C69.6161 384.685 70.4218 381.297 71.9146 378.406L72.7439 378.69Z" fill="#D3DFFF"/>
<path d="M84.3782 377.766C86.0369 379.117 87.3875 381.013 88.0273 383.193C88.359 384.283 88.5012 385.42 88.5012 386.534C88.5249 387.671 88.3353 388.761 88.1221 389.851C87.8614 390.917 87.506 391.96 87.0795 392.955L86.7951 393.642C86.724 393.855 86.6056 394.069 86.5345 394.282L86.3449 394.922C86.2738 395.135 86.2738 395.348 86.2264 395.561C86.179 395.775 86.2027 395.988 86.179 396.178C86.1553 396.391 86.2027 396.58 86.2264 396.77C86.2264 396.983 86.3212 397.149 86.3686 397.339C86.4634 397.504 86.5108 397.718 86.6529 397.884C87.0558 398.571 87.8614 399.187 88.6907 399.542L88.5012 400.443C87.3164 400.324 86.2264 399.827 85.3497 398.902C85.1365 398.689 84.9706 398.405 84.781 398.144C84.6625 397.86 84.473 397.576 84.4019 397.268C84.3071 396.959 84.2123 396.651 84.2123 396.343C84.1886 396.035 84.1412 395.727 84.1649 395.419C84.1886 395.111 84.1649 394.803 84.236 394.519L84.4019 393.666C84.473 393.381 84.5678 393.121 84.6625 392.836C84.7573 392.552 84.8521 392.292 84.9232 392.078C85.3023 391.154 85.563 390.23 85.7999 389.282C86.0132 388.334 86.1553 387.41 86.2264 386.462C86.2738 385.515 86.2027 384.591 86.0369 383.643C85.7051 381.771 84.8284 380.017 83.691 378.359L84.3782 377.766Z" fill="#D3DFFF"/>
<path d="M236.689 395.392C236.689 395.392 241.073 391.281 243.383 388.899C245.693 386.516 240.636 386.443 238.144 389.408C235.653 392.373 236.689 395.392 236.689 395.392Z" fill="#F9B384"/>
<path d="M133.742 413.635C121.065 408.706 112.262 403.449 107.169 399.957C103.859 397.684 102.185 393.7 102.858 389.735L109.388 351.648C110.061 347.72 112.662 344.391 116.318 342.827C126.794 338.334 137.016 335.77 146.02 334.515C146.02 334.515 151.058 334.115 157.497 334.733C161.735 335.151 171.429 338.007 177.595 339.917C181.069 340.99 183.87 343.609 185.198 347.01C187.781 353.667 191.982 364.926 193.31 371.001C197.93 391.991 197.166 390.445 197.166 390.445L201.931 422.729L151.222 425.567L138.271 419.655L133.742 413.635Z" fill="#708CD5"/>
<path d="M165.117 298.247C165.117 298.247 160.625 289.043 148.693 293.245C140.053 291.372 133.451 301.594 139.817 315.526L151.803 318.309L165.117 298.247Z" fill="#102048"/>
<path d="M158.753 324.275V340.554C158.753 344.373 155.661 347.465 151.859 347.465C146.694 347.465 142.51 343.282 142.51 338.116V324.275H158.753Z" fill="#F9B384"/>
<path d="M158.751 331.041V339.917C151.512 339.953 146.71 330.586 146.71 330.586L158.751 331.041Z" fill="#E28B6D"/>
<path d="M165.919 322.237C165.483 324.493 164.864 326.803 163.955 328.84C162.391 332.405 160.008 335.133 156.352 335.206C147.822 335.388 141.237 323.729 141.237 323.729L142.601 307.814L149.077 300.538L166.92 311.561C166.938 311.543 166.974 316.726 165.919 322.237Z" fill="#F9B384"/>
<path d="M142.309 319.055C142.309 319.055 144.073 311.888 150.202 307.232C150.202 307.232 159.133 318.891 168.555 313.252C177.976 307.614 173.902 296.537 165.081 298.247L154.968 297.119L142.29 301.157L140.126 311.106L142.309 319.055Z" fill="#102048"/>
<path opacity="0.4" d="M151.276 401.594C142.673 383.024 131.833 391.881 129.195 385.061C125.485 375.512 126.176 364.689 126.158 361.416L120.974 390.572C120.974 390.572 132.542 391.663 136.816 398.629L151.276 401.594Z" fill="#1F3C88"/>
<path d="M126.412 360.925C126.085 363.417 125.703 365.908 125.321 368.382C124.939 370.874 124.484 373.329 124.084 375.821C123.648 378.295 123.193 380.768 122.72 383.242L121.974 386.934C121.702 388.171 121.465 389.39 121.174 390.627L120.792 390.554C120.938 389.299 121.138 388.062 121.301 386.825L121.865 383.097C122.247 380.623 122.684 378.131 123.12 375.657C123.575 373.184 124.011 370.71 124.503 368.255C124.994 365.781 125.485 363.326 126.03 360.87L126.412 360.925Z" fill="#1F3C88"/>
<path d="M176.649 356.305C177.341 359.542 177.977 362.798 178.596 366.054C179.232 369.31 179.796 372.565 180.396 375.821C180.978 379.077 181.542 382.351 182.088 385.606L182.888 390.517C183.125 392.154 183.397 393.791 183.616 395.428L183.27 395.483C182.924 393.864 182.597 392.245 182.27 390.627L181.324 385.752C180.705 382.496 180.105 379.24 179.523 375.985C178.959 372.729 178.377 369.473 177.85 366.199C177.304 362.925 176.777 359.67 176.304 356.396L176.649 356.305Z" fill="#1F3C88"/>
<path opacity="0.4" d="M179.049 371.347C179.649 377.258 178.74 407.869 164.498 408.324L164.644 414.999L187.07 413.635L179.049 371.347Z" fill="#1F3C88"/>
<path d="M149.766 407.506C159.879 403.177 161.825 403.34 163.189 403.413C167.845 403.631 174.557 412.962 174.557 412.962L174.448 414.672H148.856L149.766 407.506Z" fill="#E28B6D"/>
<path d="M188.671 412.998H157.186V417.764H188.671V412.998Z" fill="#CBCBCB"/>
<path d="M231.506 417.764H176.777L189.054 368.873H243.783L231.506 417.764Z" fill="#E0E0E0"/>
<path d="M236.453 397.775C231.033 396.974 213.536 393.337 177.468 415.308L176.631 418.346L231.506 417.782L236.453 397.775Z" fill="#CBCBCB"/>
<path d="M237.49 408.633C237.144 410.943 237.035 414.308 229.905 413.89L227.795 412.817L229.778 410.634L234.07 408.451L237.49 408.633Z" fill="#F9B384"/>
<path d="M238.163 402.413C238.163 402.413 242.073 407.506 238.145 409.088C233.888 410.798 229.796 410.616 229.796 410.616C231.615 405.505 237.526 405.851 237.526 405.851L238.163 402.413Z" fill="#F9B384"/>
<path d="M238.29 399.121C238.29 399.121 243.674 404.123 238.672 405.523C231.615 407.506 229.433 407.651 229.433 407.651C229.051 403.904 236.071 401.467 236.071 401.467L238.29 399.121Z" fill="#F9B384"/>
<path d="M237.18 394.774C237.18 394.774 244.529 399.248 237.635 401.74C230.742 404.232 229.105 404.195 229.105 404.195C228.723 400.449 236.107 399.157 236.107 399.157L237.18 394.774Z" fill="#F9B384"/>
<path d="M229.105 404.195C229.105 404.195 237.126 403.068 239.509 401.122" stroke="#E28B6D" stroke-width="2.5" stroke-miterlimit="10"/>
<path d="M229.414 407.651C229.414 407.651 237.744 406.469 240.364 404.65" stroke="#E28B6D" stroke-width="2.5" stroke-miterlimit="10"/>
<path d="M229.796 410.616C229.796 410.616 234.743 410.78 237.526 409.416" stroke="#E28B6D" stroke-width="2.5" stroke-miterlimit="10"/>
<path d="M152.148 482.297C152.985 481.842 166.172 484.716 180.795 473.894L161.916 468.51L152.148 482.297Z" fill="#102048"/>
<path d="M162.845 423.875C162.845 423.875 205.37 403.65 219.229 404.559C233.089 405.468 232.652 422.748 227.414 430.241C222.176 437.735 209.917 447.739 164.664 444.792L162.845 423.875Z" fill="#102048"/>
<path d="M184.106 507.361C181.796 508.016 178.541 508.161 174.048 507.452C174.048 507.452 168.228 508.961 162.498 510.144C158.624 510.944 154.786 511.599 152.822 511.544C152.658 511.544 152.495 511.526 152.313 511.508C148.548 511.235 143.819 509.289 141.29 506.47C141.29 506.47 141.29 506.451 141.272 506.451C140.581 505.687 140.054 504.833 139.781 503.96C138.417 499.703 141.29 494.556 156.914 495.611C156.914 495.611 162.062 494.411 163.28 490.609C164.499 486.826 155.55 468.637 155.55 468.637L168.282 459.998L180.796 473.857C180.796 473.857 182.688 486.371 182.688 490.445C182.688 490.445 187.999 498.03 188.744 501.359C189.235 503.523 188.181 506.215 184.106 507.361Z" fill="#263238"/>
<path d="M112.535 392.191C113.99 391.627 115.481 391.172 116.973 390.754C117.718 390.554 118.482 390.354 119.246 390.208C119.628 390.135 120.028 390.063 120.41 390.008C120.61 389.99 120.81 389.954 121.011 389.954C121.229 389.935 121.447 389.954 121.647 389.972C123.284 390.135 124.757 390.663 126.231 391.209C127.686 391.772 129.123 392.391 130.541 393.064C131.96 393.737 133.324 394.482 134.67 395.246C136.016 396.029 137.344 396.847 138.635 397.72C141.2 399.484 143.673 401.431 145.783 403.722L145.511 403.995C144.365 402.958 143.182 401.976 141.946 401.067C140.709 400.139 139.454 399.266 138.144 398.448C135.561 396.756 132.851 395.283 130.105 393.919C128.722 393.227 127.322 392.609 125.903 392.045C124.485 391.518 123.011 390.936 121.574 390.754C121.392 390.736 121.229 390.717 121.047 390.717C120.865 390.717 120.683 390.736 120.483 390.754C120.101 390.79 119.737 390.845 119.355 390.918C118.61 391.045 117.846 391.209 117.1 391.372C115.59 391.718 114.099 392.118 112.626 392.573L112.535 392.191Z" fill="#1F3C88"/>
<path d="M120.318 436.826C115.08 428.422 115.08 411.816 121.682 404.304C129.212 395.738 145.327 392.482 153.731 402.486C162.134 412.489 177.594 449.085 180.795 473.876C180.795 473.876 163.734 468.201 152.148 482.279C152.148 482.279 136.906 447.502 133.741 434.77L125.102 441.591L120.318 436.826Z" fill="#1F3C88"/>
<path d="M133.742 434.788C133.742 434.788 131.469 433.952 128.286 436.08C128.286 436.08 103.422 435.552 97.8927 441.154C92.3634 446.756 96.6013 454.268 104.713 455.105C111.516 455.796 124.739 450.521 128.795 448.812C129.614 448.466 130.505 448.248 131.396 448.193L138.126 447.757L133.742 434.788Z" fill="#263238"/>
<path d="M143.655 319.509C143.655 319.509 141.982 313.98 138.326 315.362C134.652 316.745 136.616 323.929 143.855 325.93L143.655 319.509Z" fill="#F9B384"/>
<path d="M139.762 349.993C141.581 351.266 143.509 352.376 145.546 353.14C147.583 353.904 149.748 354.395 151.912 354.34C154.077 354.322 156.205 353.776 158.133 352.794L158.86 352.431C159.097 352.303 159.315 352.139 159.551 351.994C160.006 351.685 160.479 351.412 160.879 351.03L161.516 350.521L161.843 350.266C161.952 350.175 162.043 350.066 162.134 349.975C162.516 349.593 162.916 349.193 163.316 348.811L163.589 349.047C163.225 349.484 162.862 349.902 162.498 350.339C162.407 350.448 162.316 350.557 162.225 350.648L161.916 350.939L161.297 351.521C160.897 351.921 160.424 352.249 159.97 352.576C159.733 352.74 159.515 352.922 159.279 353.067L158.533 353.485C156.532 354.613 154.24 355.213 151.949 355.232C149.657 355.232 147.365 354.74 145.292 353.849C143.2 352.958 141.272 351.739 139.58 350.266L139.762 349.993Z" fill="#1F3C88"/>
<path d="M129.959 420.256L131.923 427.149C132.596 429.441 133.215 431.751 133.924 434.024C134.615 436.316 135.288 438.59 136.016 440.863C136.379 441.991 136.725 443.137 137.125 444.265C137.325 444.828 137.489 445.392 137.689 445.956C137.889 446.52 138.089 447.084 138.289 447.648L137.962 447.793C137.453 446.702 136.98 445.611 136.525 444.483C136.07 443.373 135.67 442.246 135.252 441.118C134.451 438.863 133.724 436.571 133.051 434.279C132.396 431.969 131.741 429.677 131.177 427.349C130.595 425.021 130.05 422.693 129.595 420.347L129.959 420.256Z" fill="#102048"/>
<path opacity="0.1" d="M184.107 507.361C181.797 508.016 178.542 508.161 174.049 507.452C174.049 507.452 164.427 509.925 158.334 510.889C164.591 509.634 173.685 501.904 172.667 497.03C181.652 499.976 184.089 504.469 184.107 507.361Z" fill="#1F3C88"/>
<path opacity="0.4" d="M159.935 508.216C158.771 509.634 157.043 510.616 155.242 511.089C154.297 511.344 153.315 511.489 152.332 511.508C148.567 511.235 143.838 509.289 141.31 506.469C141.31 506.469 141.31 506.451 141.292 506.451C141.019 506.088 140.764 505.706 140.546 505.324C141.892 506.56 143.347 507.579 144.911 508.361C145.694 508.725 146.494 509.089 147.33 509.343C147.731 509.507 148.149 509.598 148.567 509.707C148.986 509.834 149.404 509.889 149.84 509.962C153.242 510.544 156.861 510.198 159.935 508.216Z" fill="#1F3C88"/>
<path d="M142.018 320.31C141.927 319.819 141.709 319.346 141.418 318.927C141.145 318.509 140.799 318.127 140.417 317.854C140.035 317.581 139.617 317.454 139.253 317.636C138.889 317.818 138.58 318.272 138.325 318.727L138.071 318.636C138.18 318.091 138.38 317.509 138.944 317.108C139.217 316.908 139.599 316.854 139.926 316.908C140.253 316.963 140.544 317.108 140.799 317.29C141.29 317.654 141.654 318.127 141.909 318.636C142.163 319.146 142.345 319.728 142.272 320.31H142.018Z" fill="#E28B6D"/>
<path d="M163.644 320.164C163.48 320.946 162.898 321.492 162.316 321.383C161.752 321.273 161.407 320.528 161.57 319.746C161.734 318.964 162.316 318.418 162.898 318.527C163.48 318.654 163.808 319.382 163.644 320.164Z" fill="#102048"/>
<path d="M154.796 319.813C154.925 319.02 154.564 318.301 153.989 318.207C153.414 318.114 152.843 318.681 152.713 319.474C152.584 320.267 152.946 320.986 153.521 321.08C154.096 321.174 154.667 320.607 154.796 319.813Z" fill="#102048"/>
<path d="M158.552 320.892C158.607 321.528 158.625 322.183 158.643 322.801C158.662 323.038 158.789 323.256 158.989 323.474C159.189 323.693 159.425 323.911 159.644 324.238C159.753 324.402 159.844 324.602 159.88 324.784C159.917 324.984 159.935 325.166 159.917 325.366C159.88 325.748 159.753 326.112 159.498 326.421C159.371 326.566 159.207 326.694 159.025 326.803C158.843 326.876 158.643 326.93 158.443 326.93C158.061 326.912 157.716 326.767 157.443 326.566L157.57 326.33C157.861 326.421 158.152 326.494 158.425 326.457C158.68 326.421 158.88 326.275 159.025 326.075C159.298 325.657 159.353 325.02 159.08 324.62C158.934 324.402 158.716 324.184 158.48 323.911C158.261 323.656 158.043 323.256 158.061 322.838C158.116 322.183 158.189 321.528 158.298 320.892H158.552Z" fill="#E28B6D"/>
<path d="M151.221 317.072C151.584 316.708 152.021 316.417 152.494 316.199C152.967 315.981 153.531 315.871 154.076 315.89C154.622 315.926 155.168 316.126 155.604 316.453C156.041 316.781 156.386 317.181 156.623 317.636L156.404 317.799C156.022 317.472 155.659 317.181 155.277 316.963C154.877 316.744 154.458 316.599 154.022 316.581C153.149 316.508 152.239 316.872 151.366 317.29L151.221 317.072Z" fill="#102048"/>
<path d="M160.478 317.854C160.624 317.363 161.024 316.981 161.479 316.763C161.933 316.526 162.425 316.435 162.934 316.435C163.425 316.454 163.934 316.581 164.371 316.835C164.807 317.09 165.171 317.472 165.353 317.927L165.135 318.072C164.516 317.454 163.734 317.145 162.916 317.127C162.115 317.108 161.261 317.327 160.733 317.981L160.478 317.854Z" fill="#102048"/>
<path d="M154.26 328.531L160.298 328.967C160.298 328.967 156.934 333.424 154.26 328.531Z" fill="white"/>
<path opacity="0.4" d="M165.919 322.238C165.482 324.493 164.864 326.803 163.954 328.84C162.772 328.276 161.953 327.076 161.953 325.693C161.953 323.766 163.518 322.219 165.446 322.219C165.609 322.201 165.755 322.201 165.919 322.238Z" fill="#EE6F57"/>
<path opacity="0.4" d="M151.919 328.11C153.698 327.363 154.534 325.316 153.787 323.538C153.04 321.759 150.993 320.923 149.215 321.67C147.437 322.417 146.601 324.464 147.347 326.242C148.094 328.02 150.141 328.856 151.919 328.11Z" fill="#EE6F57"/>
</g>
</svg>
