<svg width="24" height="24" viewBox="0 0 24 24" fill="none" xmlns="http://www.w3.org/2000/svg">
<path d="M23.625 0.147321C23.9197 0.361607 24.0402 0.647321 23.9866 1.00446L20.5581 21.5759C20.5134 21.8348 20.3706 22.0357 20.1295 22.1786C20.0045 22.25 19.8661 22.2857 19.7143 22.2857C19.6161 22.2857 19.509 22.2634 19.3929 22.2188L13.3259 19.7411L10.0848 23.692C9.92413 23.8973 9.70538 24 9.42859 24C9.31252 24 9.21431 23.9821 9.13395 23.9464C8.96431 23.8839 8.82815 23.779 8.72547 23.6317C8.62279 23.4844 8.57145 23.3214 8.57145 23.1429V18.4688L20.1429 4.28571L5.82592 16.6741L0.535738 14.5045C0.20538 14.3795 0.026809 14.1339 2.32515e-05 13.7679C-0.0178339 13.4107 0.125023 13.1473 0.428595 12.9777L22.7143 0.120536C22.8482 0.0401786 22.9911 0 23.1429 0C23.3215 0 23.4822 0.0491071 23.625 0.147321Z" fill="white"/>
</svg>
