<svg width="15" height="17" viewBox="0 0 15 17" fill="none" xmlns="http://www.w3.org/2000/svg">
<path d="M1.88889 3.02778V15.5278H13V16.9167H1.88889C1.125 16.9167 0.5 16.2917 0.5 15.5278V3.02778H1.88889ZM9.52778 5.11111H13.3472L9.52778 1.29167V5.11111ZM4.66667 0.25H10.2222L14.3889 4.41667V12.75C14.3889 13.5208 13.7708 14.1389 13 14.1389H4.66667C4.29831 14.1389 3.94504 13.9926 3.68457 13.7321C3.42411 13.4716 3.27778 13.1184 3.27778 12.75V1.63889C3.27778 0.868056 3.89583 0.25 4.66667 0.25ZM10.9167 11.3611V9.97222H4.66667V11.3611H10.9167ZM13 8.58333V7.19444H4.66667V8.58333H13Z" fill="#7B7C7D"/>
</svg>
