<svg width="18" height="17" viewBox="0 0 18 17" fill="none" xmlns="http://www.w3.org/2000/svg">
<path d="M14.4373 4.91667C14.3678 4.91667 14.2951 4.89583 14.219 4.85417C14.1423 4.8125 14.0901 4.75 14.0623 4.66667L13.5206 3.5L12.354 2.95833C12.2706 2.93056 12.2081 2.87833 12.1665 2.80167C12.1248 2.72556 12.104 2.65278 12.104 2.58333C12.104 2.51389 12.1248 2.44083 12.1665 2.36417C12.2081 2.28806 12.2706 2.23611 12.354 2.20833L13.5206 1.66667L14.0623 0.5C14.0901 0.416667 14.1423 0.354167 14.219 0.3125C14.2951 0.270833 14.3678 0.25 14.4373 0.25C14.5067 0.25 14.5798 0.270833 14.6565 0.3125C14.7326 0.354167 14.7845 0.416667 14.8123 0.5L15.354 1.66667L16.5206 2.20833C16.604 2.23611 16.6665 2.28806 16.7081 2.36417C16.7498 2.44083 16.7706 2.51389 16.7706 2.58333C16.7706 2.65278 16.7498 2.72556 16.7081 2.80167C16.6665 2.87833 16.604 2.93056 16.5206 2.95833L15.354 3.5L14.8123 4.66667C14.7845 4.75 14.7326 4.8125 14.6565 4.85417C14.5798 4.89583 14.5067 4.91667 14.4373 4.91667ZM16.104 10.7708C16.0345 10.7708 15.9651 10.75 15.8956 10.7083C15.8262 10.6667 15.7706 10.6111 15.729 10.5417L15.4373 9.91667L14.8123 9.625C14.7706 9.59722 14.6942 9.47222 14.5831 9.25C14.5831 9.18056 14.604 9.11111 14.6456 9.04167C14.6873 8.97222 14.7428 8.91667 14.8123 8.875L15.4373 8.58333L15.729 7.95833C15.7567 7.91667 15.8817 7.84028 16.104 7.72917C16.1734 7.72917 16.2428 7.75 16.3123 7.79167C16.3817 7.83333 16.4373 7.88889 16.479 7.95833L16.7706 8.58333L17.3956 8.875C17.4373 8.90278 17.5137 9.02778 17.6248 9.25C17.6248 9.31944 17.604 9.38889 17.5623 9.45833C17.5206 9.52778 17.4651 9.58333 17.3956 9.625L16.7706 9.91667L16.479 10.5417C16.4512 10.5833 16.3262 10.6597 16.104 10.7708ZM5.99979 16.3333C5.79146 16.3333 5.6109 16.2639 5.45813 16.125C5.30535 15.9861 5.21507 15.8125 5.18729 15.6042L5.02063 14.375C4.90951 14.3333 4.80201 14.2778 4.69813 14.2083C4.59368 14.1389 4.50674 14.0694 4.43729 14L3.29146 14.5C3.09702 14.5833 2.89924 14.5936 2.69813 14.5308C2.49646 14.4686 2.34007 14.3403 2.22896 14.1458L0.895626 11.8125C0.784515 11.6181 0.749793 11.4203 0.79146 11.2192C0.833126 11.0175 0.944237 10.8542 1.12479 10.7292L2.10396 10V9.33333L1.12479 8.60417C0.944237 8.47917 0.833126 8.31583 0.79146 8.11417C0.749793 7.91306 0.784515 7.71528 0.895626 7.52083L2.22896 5.1875C2.34007 4.99306 2.49646 4.86444 2.69813 4.80167C2.89924 4.73944 3.09702 4.75 3.29146 4.83333L4.43729 5.33333C4.50674 5.26389 4.59368 5.19444 4.69813 5.125C4.80201 5.05556 4.90951 5 5.02063 4.95833L5.18729 3.72917C5.21507 3.52083 5.30535 3.34722 5.45813 3.20833C5.6109 3.06944 5.79146 3 5.99979 3H8.70813C8.91646 3 9.09702 3.06944 9.24979 3.20833C9.40257 3.34722 9.49285 3.52083 9.52063 3.72917L9.68729 4.95833C9.7984 5 9.90618 5.05556 10.0106 5.125C10.1145 5.19444 10.2012 5.26389 10.2706 5.33333L11.4165 4.83333C11.6109 4.75 11.809 4.73944 12.0106 4.80167C12.2117 4.86444 12.3678 4.99306 12.479 5.1875L13.8123 7.52083C13.9234 7.71528 13.9581 7.91306 13.9165 8.11417C13.8748 8.31583 13.7637 8.47917 13.5831 8.60417L12.604 9.33333V10L13.5831 10.7292C13.7637 10.8542 13.8748 11.0175 13.9165 11.2192C13.9581 11.4203 13.9234 11.6181 13.8123 11.8125L12.479 14.1458C12.3678 14.3403 12.2117 14.4686 12.0106 14.5308C11.809 14.5936 11.6109 14.5833 11.4165 14.5L10.2706 14C10.2012 14.0694 10.1145 14.1389 10.0106 14.2083C9.90618 14.2778 9.7984 14.3333 9.68729 14.375L9.52063 15.6042C9.49285 15.8125 9.40257 15.9861 9.24979 16.125C9.09702 16.2639 8.91646 16.3333 8.70813 16.3333H5.99979ZM7.35396 12.1667C8.0484 12.1667 8.63868 11.9236 9.12479 11.4375C9.6109 10.9514 9.85396 10.3611 9.85396 9.66667C9.85396 8.97222 9.6109 8.38194 9.12479 7.89583C8.63868 7.40972 8.0484 7.16667 7.35396 7.16667C6.65951 7.16667 6.06924 7.40972 5.58313 7.89583C5.09702 8.38194 4.85396 8.97222 4.85396 9.66667C4.85396 10.3611 5.09702 10.9514 5.58313 11.4375C6.06924 11.9236 6.65951 12.1667 7.35396 12.1667Z" fill="white"/>
</svg>
