<svg width="20" height="18" viewBox="0 0 20 18" fill="none" xmlns="http://www.w3.org/2000/svg">
<path d="M7.50123 1.9166C6.25123 3.4166 6.6679 5.6666 8.58457 6.83327C11.4179 8.6666 14.6679 4.58327 12.5012 1.9166C11.1679 0.333268 8.83457 0.333268 7.50123 1.9166Z" fill="white"/>
<path d="M2.25006 4.5833C1.16673 5.5833 1.66673 7.99997 3.08339 8.49997C3.83339 8.8333 5.00006 8.5833 5.58339 7.91664C6.25006 7.3333 6.50006 6.16664 6.16673 5.41664C5.66673 3.99997 3.25006 3.49997 2.25006 4.5833Z" fill="white"/>
<path d="M13.8345 5.33305C13.5012 6.16638 13.7512 7.33305 14.4178 7.91638C16.0012 9.49971 18.5012 8.33305 18.1678 6.16638C17.8345 3.91638 14.5845 3.33305 13.8345 5.33305Z" fill="white"/>
<path d="M5.83502 9.83317C5.33502 10.8332 5.00169 12.7498 5.16835 14.2498C5.41835 16.9165 5.41835 16.9165 10.0017 16.9165C14.585 16.9165 14.585 16.9165 14.835 14.2498C15.2517 9.99984 13.835 8.1665 10.0017 8.1665C7.58502 8.1665 6.50169 8.58317 5.83502 9.83317Z" fill="white"/>
<path d="M0.917624 10.9998C-0.749043 12.9998 0.084291 16.8332 2.33429 17.1665C4.00096 17.4165 4.16762 17.0832 4.16762 13.6665C4.16762 9.66648 2.83429 8.66648 0.917624 10.9998Z" fill="white"/>
<path d="M15.834 13.6665C15.834 17.0832 16.0007 17.4165 17.7507 17.1665C21.084 16.6665 20.4173 9.83315 17.0007 9.83315C16.1673 9.83315 15.834 10.9998 15.834 13.6665Z" fill="white"/>
</svg>
