<svg width="14" height="18" viewBox="0 0 14 18" fill="none" xmlns="http://www.w3.org/2000/svg">
<path d="M6.99967 13.167L10.333 9.83366L9.16634 8.66699L7.83301 9.95866V6.50033H6.16634V9.95866L4.83301 8.66699L3.66634 9.83366L6.99967 13.167ZM1.99967 17.3337C1.54134 17.3337 1.14912 17.1706 0.823008 16.8445C0.496341 16.5178 0.333008 16.1253 0.333008 15.667V5.66699L5.33301 0.666992H11.9997C12.458 0.666992 12.8505 0.830048 13.1772 1.15616C13.5033 1.48283 13.6663 1.87533 13.6663 2.33366V15.667C13.6663 16.1253 13.5033 16.5178 13.1772 16.8445C12.8505 17.1706 12.458 17.3337 11.9997 17.3337H1.99967Z" fill="white"/>
</svg>
