<svg width="19" height="17" viewBox="0 0 19 17" fill="none" xmlns="http://www.w3.org/2000/svg">
<path d="M7.29539 13.7833C7.20577 13.6002 7.0496 13.5817 6.98641 13.5817C6.92321 13.5817 6.76705 13.5999 6.68198 13.7731L6.44895 14.2475C6.25542 14.6427 5.6885 14.5991 5.5533 14.1828L5.04197 12.6221L4.71962 13.608C4.54067 14.1541 4.03968 14.5212 3.47397 14.5212H3.09754C2.82896 14.5212 2.61143 14.2997 2.61143 14.0264C2.61143 13.753 2.82896 13.5316 3.09754 13.5316H3.47397C3.62071 13.5316 3.75075 13.4363 3.79723 13.2947L4.34988 11.605C4.45014 11.3016 4.72783 11.0975 5.04197 11.0975C5.35612 11.0975 5.63381 11.3013 5.73377 11.605L6.15547 12.8927C6.75551 12.392 7.79791 12.5927 8.16067 13.3306C8.21809 13.4475 8.32746 13.5146 8.44504 13.5242V10.9846L12.3339 7.05444V5.61491H8.20168C7.80064 5.61491 7.47252 5.28092 7.47252 4.87272V0.666992H1.39616C0.992078 0.666992 0.666992 0.997884 0.666992 1.40918V15.7581C0.666992 16.1694 0.992078 16.5003 1.39616 16.5003H11.6044C12.0085 16.5003 12.3336 16.1694 12.3336 15.7581V14.5212L8.44474 14.5178C7.95498 14.5082 7.51566 14.2308 7.29539 13.7833ZM12.3336 4.43669C12.3336 4.24186 12.2577 4.05322 12.1209 3.91406L9.14656 0.883464C9.00984 0.744303 8.82451 0.666992 8.63007 0.666992H8.44474V4.62533H12.3336V4.43669ZM9.41695 11.3965V13.5316H11.513L16.4251 8.49769L14.3628 6.39853L9.41695 11.3965ZM17.9403 5.84159L16.972 4.85602C16.67 4.54863 16.1799 4.54863 15.8779 4.85602L15.05 5.69871L17.1124 7.79787L17.9403 6.95518C18.2426 6.64779 18.2426 6.14897 17.9403 5.84159Z" fill="white"/>
</svg>
