<svg width="16" height="18" viewBox="0 0 16 18" fill="none" xmlns="http://www.w3.org/2000/svg">
<path d="M8.81322 0.666992V5.4289C8.81322 5.84987 8.98045 6.25361 9.27813 6.55129C9.5758 6.84896 9.97954 7.0162 10.4005 7.0162H15.1624V14.9527C15.1624 15.3737 14.9952 15.7774 14.6975 16.0751C14.3998 16.3728 13.9961 16.54 13.5751 16.54H9.60687C10.049 15.9504 10.3183 15.2494 10.3845 14.5154C10.4507 13.7815 10.3112 13.0435 9.98158 12.3844C9.652 11.7252 9.14539 11.1709 8.5185 10.7835C7.89161 10.396 7.16922 10.1908 6.43226 10.1908H2.46401V2.25429C2.46401 1.83332 2.63124 1.42958 2.92892 1.1319C3.2266 0.834225 3.63033 0.666992 4.05131 0.666992H8.81322ZM10.0037 1.06382V5.4289C10.0037 5.53414 10.0455 5.63508 10.1199 5.7095C10.1943 5.78391 10.2953 5.82572 10.4005 5.82572H14.7656L10.0037 1.06382ZM3.8529 11.5797C3.8529 11.4218 3.79019 11.2704 3.67856 11.1588C3.56693 11.0472 3.41553 10.9845 3.25766 10.9845L3.09893 10.9884C2.27175 11.0298 1.4935 11.3928 0.93023 12C0.366965 12.6072 0.0632899 13.4105 0.0840018 14.2384C0.104714 15.0664 0.448172 15.8535 1.04109 16.4318C1.63401 17.01 2.42944 17.3337 3.25766 17.3337L3.33861 17.3281C3.48802 17.3075 3.62405 17.231 3.71922 17.1141C3.8144 16.9971 3.86161 16.8483 3.85133 16.6978C3.84105 16.5474 3.77404 16.4064 3.66385 16.3035C3.55365 16.2005 3.40847 16.1432 3.25766 16.1432L3.1275 16.1392C2.61275 16.1066 2.13091 15.8749 1.78412 15.4931C1.43733 15.1113 1.25285 14.6094 1.26978 14.0939C1.2867 13.5784 1.50371 13.0898 1.87479 12.7315C2.24588 12.3733 2.74188 12.1737 3.25766 12.1749L3.33861 12.1694C3.48112 12.1498 3.61172 12.0793 3.70626 11.9709C3.8008 11.8625 3.85289 11.7235 3.8529 11.5797ZM9.60687 14.1591C9.60687 13.3171 9.2724 12.5096 8.67705 11.9143C8.0817 11.3189 7.27422 10.9845 6.43226 10.9845L6.35131 10.99C6.20191 11.0106 6.06588 11.0871 5.9707 11.2041C5.87553 11.321 5.82831 11.4698 5.83859 11.6203C5.84887 11.7707 5.91588 11.9117 6.02608 12.0146C6.13628 12.1176 6.28145 12.1749 6.43226 12.1749L6.56242 12.1789C7.07718 12.2115 7.55901 12.4432 7.9058 12.825C8.25259 13.2068 8.43708 13.7087 8.42015 14.2242C8.40322 14.7397 8.18622 15.2283 7.81513 15.5866C7.44405 15.9448 6.94805 16.1444 6.43226 16.1432L6.35131 16.1487C6.20191 16.1693 6.06588 16.2458 5.9707 16.3628C5.87553 16.4798 5.82831 16.6285 5.83859 16.779C5.84887 16.9295 5.91588 17.0704 6.02608 17.1734C6.13628 17.2763 6.28145 17.3336 6.43226 17.3337L6.59099 17.3297C7.40445 17.289 8.17114 16.9371 8.73248 16.347C9.29382 15.7569 9.60687 14.9735 9.60687 14.1591ZM6.23385 13.5638H3.45607L3.37512 13.5694C3.22572 13.5899 3.08969 13.6664 2.99451 13.7834C2.89934 13.9004 2.85212 14.0492 2.8624 14.1996C2.87268 14.3501 2.93969 14.491 3.04989 14.594C3.16009 14.697 3.30526 14.7542 3.45607 14.7543H6.23385L6.31481 14.7487C6.46421 14.7282 6.60024 14.6517 6.69541 14.5347C6.79059 14.4177 6.8378 14.2689 6.82752 14.1185C6.81724 13.968 6.75023 13.8271 6.64004 13.7241C6.52984 13.6212 6.38466 13.5639 6.23385 13.5638Z" fill="white"/>
</svg>
