<svg width="12" height="18" viewBox="0 0 12 18" fill="none" xmlns="http://www.w3.org/2000/svg">
<path fill-rule="evenodd" clip-rule="evenodd" d="M3.08398 1.9165C3.08398 1.58498 3.21568 1.26704 3.4501 1.03262C3.68452 0.7982 4.00246 0.666504 4.33398 0.666504H7.66732C7.99884 0.666504 8.31678 0.7982 8.5512 1.03262C8.78562 1.26704 8.91732 1.58498 8.91732 1.9165V2.74984C8.91732 3.08136 8.78562 3.3993 8.5512 3.63372C8.31678 3.86814 7.99884 3.99984 7.66732 3.99984H4.33398C4.00246 3.99984 3.68452 3.86814 3.4501 3.63372C3.21568 3.3993 3.08398 3.08136 3.08398 2.74984V1.9165ZM4.33398 1.49984C4.22348 1.49984 4.1175 1.54374 4.03936 1.62188C3.96122 1.70002 3.91732 1.806 3.91732 1.9165V2.74984C3.91732 2.86034 3.96122 2.96632 4.03936 3.04446C4.1175 3.12261 4.22348 3.1665 4.33398 3.1665H7.66732C7.77782 3.1665 7.88381 3.12261 7.96195 3.04446C8.04009 2.96632 8.08398 2.86034 8.08398 2.74984V1.9165C8.08398 1.806 8.04009 1.70002 7.96195 1.62188C7.88381 1.54374 7.77782 1.49984 7.66732 1.49984H4.33398Z" fill="#7B7C7D"/>
<path fill-rule="evenodd" clip-rule="evenodd" d="M3.50033 1.9165H1.41699C1.08547 1.9165 0.767529 2.0482 0.533109 2.28262C0.298688 2.51704 0.166992 2.83498 0.166992 3.1665V16.0832C0.166992 16.4147 0.298688 16.7326 0.533109 16.9671C0.767529 17.2015 1.08547 17.3332 1.41699 17.3332H10.5837C10.9152 17.3332 11.2331 17.2015 11.4675 16.9671C11.702 16.7326 11.8337 16.4147 11.8337 16.0832V3.1665C11.8337 2.83498 11.702 2.51704 11.4675 2.28262C11.2331 2.0482 10.9152 1.9165 10.5837 1.9165H8.50033V2.74984C8.50033 2.97085 8.41253 3.18281 8.25625 3.33909C8.09997 3.49537 7.88801 3.58317 7.66699 3.58317H4.33366C4.11265 3.58317 3.90068 3.49537 3.7444 3.33909C3.58812 3.18281 3.50033 2.97085 3.50033 2.74984V1.9165ZM2.25033 7.74984C2.25033 7.63933 2.29422 7.53335 2.37236 7.45521C2.4505 7.37707 2.55649 7.33317 2.66699 7.33317H5.58366C5.69417 7.33317 5.80015 7.37707 5.87829 7.45521C5.95643 7.53335 6.00033 7.63933 6.00033 7.74984C6.00033 7.86034 5.95643 7.96633 5.87829 8.04447C5.80015 8.12261 5.69417 8.1665 5.58366 8.1665H2.66699C2.55649 8.1665 2.4505 8.12261 2.37236 8.04447C2.29422 7.96633 2.25033 7.86034 2.25033 7.74984ZM2.66699 5.24984C2.55649 5.24984 2.4505 5.29374 2.37236 5.37188C2.29422 5.45002 2.25033 5.556 2.25033 5.6665C2.25033 5.77701 2.29422 5.88299 2.37236 5.96113C2.4505 6.03927 2.55649 6.08317 2.66699 6.08317H9.12533C9.23583 6.08317 9.34181 6.03927 9.41995 5.96113C9.49809 5.88299 9.54199 5.77701 9.54199 5.6665C9.54199 5.556 9.49809 5.45002 9.41995 5.37188C9.34181 5.29374 9.23583 5.24984 9.12533 5.24984H2.66699ZM3.08366 11.0832V11.9165H3.91699V11.0832H3.08366ZM2.66699 10.2498C2.55649 10.2498 2.4505 10.2937 2.37236 10.3719C2.29422 10.45 2.25033 10.556 2.25033 10.6665V12.3332C2.25033 12.4437 2.29422 12.5497 2.37236 12.6278C2.4505 12.7059 2.55649 12.7498 2.66699 12.7498H4.33366C4.44417 12.7498 4.55015 12.7059 4.62829 12.6278C4.70643 12.5497 4.75033 12.4437 4.75033 12.3332V10.6665C4.75033 10.556 4.70643 10.45 4.62829 10.3719C4.55015 10.2937 4.44417 10.2498 4.33366 10.2498H2.66699ZM8.91699 11.0832C8.91699 11.4147 8.7853 11.7326 8.55088 11.9671C8.31646 12.2015 7.99851 12.3332 7.66699 12.3332C7.33547 12.3332 7.01753 12.2015 6.78311 11.9671C6.54869 11.7326 6.41699 11.4147 6.41699 11.0832C6.41699 10.7517 6.54869 10.4337 6.78311 10.1993C7.01753 9.96487 7.33547 9.83317 7.66699 9.83317C7.99851 9.83317 8.31646 9.96487 8.55088 10.1993C8.7853 10.4337 8.91699 10.7517 8.91699 11.0832ZM7.66699 12.8823C6.83241 12.8823 5.16699 13.3265 5.16699 14.2082V15.2498H10.167V14.2082C10.167 13.3265 8.50158 12.8823 7.66699 12.8823Z" fill="#7B7C7D"/>
</svg>
