<svg width="21" height="18" viewBox="0 0 21 18" fill="none" xmlns="http://www.w3.org/2000/svg">
<path d="M8.00026 1.9166C6.75026 3.4166 7.16692 5.6666 9.08359 6.83327C11.9169 8.6666 15.1669 4.58327 13.0003 1.9166C11.6669 0.333268 9.33359 0.333268 8.00026 1.9166Z" fill="#808080"/>
<path d="M2.75006 4.5833C1.66673 5.5833 2.16673 7.99997 3.58339 8.49997C4.33339 8.8333 5.50006 8.5833 6.08339 7.91664C6.75006 7.3333 7.00006 6.16664 6.66673 5.41664C6.16673 3.99997 3.75006 3.49997 2.75006 4.5833Z" fill="#808080"/>
<path d="M14.3335 5.33305C14.0002 6.16638 14.2502 7.33305 14.9169 7.91638C16.5002 9.49971 19.0002 8.33305 18.6669 6.16638C18.3335 3.91638 15.0835 3.33305 14.3335 5.33305Z" fill="#808080"/>
<path d="M6.33307 9.83317C5.83307 10.8332 5.49974 12.7498 5.6664 14.2498C5.9164 16.9165 5.9164 16.9165 10.4997 16.9165C15.0831 16.9165 15.0831 16.9165 15.3331 14.2498C15.7497 9.99984 14.3331 8.1665 10.4997 8.1665C8.08307 8.1665 6.99974 8.58317 6.33307 9.83317Z" fill="#808080"/>
<path d="M1.41665 10.9998C-0.250019 12.9998 0.583314 16.8332 2.83331 17.1665C4.49998 17.4165 4.66665 17.0832 4.66665 13.6665C4.66665 9.66648 3.33331 8.66648 1.41665 10.9998Z" fill="#808080"/>
<path d="M16.333 13.6665C16.333 17.0832 16.4997 17.4165 18.2497 17.1665C21.583 16.6665 20.9163 9.83315 17.4997 9.83315C16.6663 9.83315 16.333 10.9998 16.333 13.6665Z" fill="#808080"/>
</svg>
