<svg width="170" height="80" viewBox="0 0 170 80" fill="none" xmlns="http://www.w3.org/2000/svg">
<path d="M122.089 54.0794H120.943V53.6655H123.733V54.0794H122.581V57.4381H122.089V54.0794Z" fill="#231F20"/>
<path d="M128.171 55.5123C128.171 56.8113 127.383 57.4999 126.421 57.4999C125.459 57.4999 124.727 56.7276 124.727 55.5854C124.727 54.3878 125.471 53.604 126.476 53.604C127.482 53.604 128.17 54.393 128.17 55.5132L128.171 55.5123ZM125.247 55.574C125.247 56.3798 125.683 57.1027 126.448 57.1027C127.213 57.1027 127.656 56.3921 127.656 55.5352C127.656 54.7849 127.264 54.0012 126.455 54.0012C125.645 54.0012 125.247 54.7453 125.247 55.574Z" fill="#231F20"/>
<path d="M135.092 57.2699C134.874 57.3483 134.444 57.4769 133.935 57.4769C133.365 57.4769 132.896 57.3316 132.527 56.9784C132.202 56.6649 132.001 56.1612 132.001 55.573C132.007 54.4475 132.779 53.625 134.042 53.625C134.477 53.625 134.819 53.7201 134.981 53.7985L134.863 54.1965C134.662 54.1067 134.411 54.0345 134.03 54.0345C133.113 54.0345 132.515 54.6051 132.515 55.5518C132.515 56.4985 133.091 57.0744 133.969 57.0744C134.288 57.0744 134.506 57.0295 134.617 56.9732V55.8477H133.851V55.4558H135.092V57.269V57.2699Z" fill="#231F20"/>
<path d="M136.785 53.7161C137.031 53.6659 137.383 53.6377 137.719 53.6377C138.239 53.6377 138.574 53.7328 138.809 53.9459C138.999 54.1141 139.105 54.3713 139.105 54.6627C139.105 55.1612 138.792 55.4914 138.395 55.6253V55.642C138.686 55.7424 138.859 56.011 138.948 56.4029C139.071 56.9295 139.161 57.2932 139.239 57.4385H138.736C138.674 57.3319 138.59 57.007 138.484 56.5376C138.372 56.0172 138.171 55.8208 137.729 55.804H137.271V57.4385H136.784V53.7161H136.785ZM137.272 55.4351H137.769C138.289 55.4351 138.618 55.1497 138.618 54.7182C138.618 54.2312 138.266 54.0181 137.752 54.0128C137.517 54.0128 137.35 54.0349 137.272 54.0578V55.4351Z" fill="#231F20"/>
<path d="M143.98 55.5123C143.98 56.8113 143.192 57.4999 142.23 57.4999C141.268 57.4999 140.536 56.7276 140.536 55.5854C140.536 54.3878 141.279 53.604 142.285 53.604C143.291 53.604 143.979 54.393 143.979 55.5132L143.98 55.5123ZM141.056 55.574C141.056 56.3798 141.492 57.1027 142.257 57.1027C143.022 57.1027 143.465 56.3921 143.465 55.5352C143.465 54.7849 143.073 54.0012 142.263 54.0012C141.453 54.0012 141.056 54.7453 141.056 55.574Z" fill="#231F20"/>
<path d="M146.176 57.4381L145.221 53.6655H145.735L146.182 55.5747C146.293 56.045 146.394 56.5152 146.461 56.8789H146.472C146.534 56.5038 146.652 56.0556 146.78 55.5686L147.283 53.6655H147.792L148.25 55.58C148.356 56.0283 148.457 56.4756 148.513 56.8728H148.524C148.602 56.4589 148.709 56.0388 148.826 55.5686L149.324 53.6655H149.822L148.753 57.4381H148.245L147.77 55.4735C147.652 54.9918 147.574 54.6228 147.524 54.2415H147.512C147.446 54.6166 147.361 54.9865 147.222 55.4735L146.685 57.4381H146.176Z" fill="#231F20"/>
<path d="M76.1062 53.9094C76.3188 53.8645 76.6543 53.8311 76.9951 53.8311C77.4817 53.8311 77.7944 53.9147 78.0289 54.1058C78.2248 54.2511 78.3425 54.4748 78.3425 54.7716C78.3425 55.1353 78.1018 55.4549 77.7048 55.6002V55.6117C78.0623 55.7015 78.4822 55.9983 78.4822 56.5575C78.4822 56.8824 78.3539 57.1281 78.1633 57.3131C77.9007 57.5535 77.4756 57.6662 76.8607 57.6662C76.5252 57.6662 76.2678 57.6442 76.1062 57.6213V53.9094ZM76.5928 55.4549H77.0346C77.5485 55.4549 77.8506 55.1863 77.8506 54.8226C77.8506 54.3806 77.5151 54.2071 77.0232 54.2071C76.7992 54.2071 76.671 54.2238 76.5928 54.2405V55.4558V55.4549ZM76.5928 57.2629C76.6877 57.2796 76.8273 57.2849 77.0012 57.2849C77.5045 57.2849 77.9683 57.1 77.9683 56.5513C77.9683 56.0361 77.5265 55.8239 76.996 55.8239H76.5937V57.2629H76.5928Z" fill="#231F20"/>
<path d="M82.0378 55.8638H80.5727V57.2244H82.2047V57.633H80.0861V53.8604H82.1212V54.269H80.5727V55.4613H82.0378V55.8647V55.8638Z" fill="#231F20"/>
<path d="M86.6544 57.4647C86.4366 57.5431 86.0062 57.6717 85.4976 57.6717C84.9276 57.6717 84.4576 57.5264 84.0887 57.1733C83.7646 56.8598 83.5635 56.356 83.5635 55.7678C83.5687 54.6423 84.3408 53.8198 85.6039 53.8198C86.0396 53.8198 86.3813 53.9149 86.5429 53.9933L86.4252 54.3914C86.224 54.3015 85.9728 54.2293 85.5925 54.2293C84.6755 54.2293 84.0773 54.8 84.0773 55.7466C84.0773 56.6933 84.6535 57.2693 85.531 57.2693C85.8498 57.2693 86.0677 57.2243 86.1792 57.168V56.0425H85.4133V55.6507H86.6544V57.4639V57.4647Z" fill="#231F20"/>
<path d="M88.8345 53.8594V57.632H88.3479V53.8594H88.8345Z" fill="#231F20"/>
<path d="M90.6343 57.633V53.8604H91.1657L92.3734 55.7696C92.6527 56.2116 92.8715 56.6097 93.0498 56.9954L93.0612 56.9901C93.0164 56.4864 93.005 56.0276 93.005 55.4393V53.8612H93.4635V57.6339H92.9716L91.7753 55.7194C91.5126 55.2993 91.2605 54.8687 91.0708 54.4601L91.0541 54.4653C91.0822 54.9409 91.0937 55.3944 91.0937 56.0214V57.6339H90.6352L90.6343 57.633Z" fill="#231F20"/>
<path d="M82.7747 34.2856C84.498 36.2089 85.3597 38.5576 85.3597 41.3324C85.3597 44.1073 84.498 46.4507 82.7747 48.3616C81.0514 50.2726 78.8607 51.2281 76.2028 51.2281C73.761 51.2281 71.7496 50.3395 70.1703 48.5624H70.0982V50.6803H63.8136V19.2788H70.1694V33.7379C71.7496 32.18 73.7601 31.4007 76.202 31.4007C78.859 31.4007 81.0496 32.3623 82.7738 34.2848L82.7747 34.2856ZM77.4238 44.4913C78.2143 43.6758 78.6087 42.6234 78.6087 41.3324C78.6087 40.0414 78.1958 38.9838 77.3702 38.156C76.5445 37.3291 75.5204 36.9143 74.2994 36.9143C73.0785 36.9143 72.0912 37.3291 71.2647 38.156C70.4391 38.9838 70.0262 40.0423 70.0262 41.3324C70.0262 42.6226 70.4268 43.645 71.2296 44.4728C72.0315 45.3006 73.0548 45.7145 74.2994 45.7145C75.5441 45.7145 76.6341 45.3067 77.4238 44.4913Z" fill="#231F20"/>
<path d="M88.0537 21.5066C88.7959 20.7528 89.6813 20.375 90.7107 20.375C91.7401 20.375 92.6255 20.7528 93.3677 21.5066C94.1091 22.2613 94.4806 23.1622 94.4806 24.2084C94.4806 25.2546 94.1091 26.1563 93.3677 26.9102C92.6255 27.6649 91.7393 28.0418 90.7107 28.0418C89.6821 28.0418 88.795 27.6649 88.0537 26.9102C87.3115 26.1563 86.9408 25.2546 86.9408 24.2084C86.9408 23.1622 87.3115 22.2613 88.0537 21.5066ZM87.4432 31.9491V50.6801H93.799V31.9491H87.4432Z" fill="#231F20"/>
<path d="M96.5641 55.2809L101.771 52.6884C102.728 54.2946 104.392 55.0978 106.763 55.0978C107.863 55.0978 108.887 54.7385 109.833 54.0208C110.779 53.3022 111.252 52.2005 111.252 50.7166V49.3288C110.126 50.5951 108.115 51.2274 105.219 51.2274C102.562 51.2274 100.371 50.2728 98.6467 48.3609C96.9233 46.45 96.0608 44.1075 96.0608 41.3317C96.0608 38.556 96.9225 36.2082 98.6467 34.2849C100.37 32.3625 102.561 31.4009 105.219 31.4009C107.588 31.4009 109.564 32.1441 111.144 33.628H111.252V31.9486H117.608V51.1913C117.608 54.2339 116.614 56.5825 114.628 58.2381C112.64 59.8928 110.019 60.7215 106.764 60.7215C101.497 60.7215 98.0968 58.9074 96.565 55.2809H96.5641ZM104.051 38.1562C103.226 38.984 102.813 40.0425 102.813 41.3326C102.813 42.6228 103.208 43.676 103.998 44.4915C104.788 45.3069 105.829 45.7146 107.122 45.7146C108.415 45.7146 109.39 45.3008 110.193 44.473C110.995 43.646 111.396 42.599 111.396 41.3326C111.396 40.0663 110.983 38.984 110.158 38.1562C109.332 37.3293 108.32 36.9145 107.123 36.9145C105.926 36.9145 104.879 37.3293 104.053 38.1562H104.051Z" fill="#231F20"/>
<path d="M127.016 31.9492V40.8586C127.016 42.7088 127.291 44.0235 127.842 44.802C128.392 45.5814 129.326 45.9706 130.643 45.9706C131.959 45.9706 132.893 45.5814 133.444 44.802C133.994 44.0235 134.269 42.7088 134.269 40.8586V31.9492H140.625V42.4287C140.625 45.5453 139.829 47.79 138.237 49.1655C136.644 50.5411 134.113 51.2289 130.642 51.2289C127.17 51.2289 124.638 50.542 123.047 49.1655C121.454 47.7909 120.658 45.5453 120.658 42.4287V31.9492H127.014H127.016Z" fill="#231F20"/>
<path d="M143.677 50.6803V19.2788H150.033V50.6803H143.677Z" fill="#231F20"/>
<path d="M25.8834 40.4545V25.8669C25.8834 22.229 29.4425 19.2798 33.8326 19.2798H51.4349C56.7454 19.2798 59.4059 24.6014 55.6501 27.7145L36.0601 43.9498C32.3042 47.0619 25.8834 44.8577 25.8834 40.4554" fill="#5367FC"/>
<path d="M25.8826 55.7695V41.1827C25.8826 37.5448 29.4417 34.5947 33.8317 34.5947H51.4349C56.7463 34.5947 59.4068 39.9164 55.6501 43.0294L36.061 59.2647C32.3051 62.3769 25.8834 60.1718 25.8834 55.7695" fill="#00FFC1"/>
<path d="M32.8374 46.7924L47.5868 34.5684H29.1799C24.0916 34.5684 19.9651 37.9878 19.9651 42.2043V42.3734C19.9651 47.9407 28.0864 50.7288 32.8365 46.7924" fill="#231F20"/>
<path d="M26.0627 48.3724H25.8501V35.2167L26.0627 35.1392V48.3724Z" fill="white"/>
<path d="M26.8022 37.3188H25.1088V46.1621H26.8022V37.3188Z" fill="white"/>
<path d="M31.5392 38.9707H31.3275V44.2862H31.5392V38.9707Z" fill="white"/>
<path d="M32.2805 39.6182H30.5862V43.4339H32.2805V39.6182Z" fill="white"/>
<path d="M23.5057 39.8242H23.2941V42.8668H23.5057V39.8242Z" fill="white"/>
<path d="M24.2479 41.1299H22.5536V42.8665H24.2479V41.1299Z" fill="white"/>
<path d="M36.2436 35.8491H36.0328V39.6182H36.2436V35.8491Z" fill="white"/>
<path d="M36.9867 36.5762H35.2924V38.3128H36.9867V36.5762Z" fill="white"/>
<path d="M33.5551 37.501H33.3434V42.4149H33.5551V37.501Z" fill="white"/>
<path d="M34.2955 38.0874H32.6021V40.5426H34.2955V38.0874Z" fill="white"/>
<path d="M28.9111 35.4102H28.6995V42.4226H28.9111V35.4102Z" fill="white"/>
<path d="M29.6525 37.2168H27.9581V41.3848H29.6525V37.2168Z" fill="white"/>
</svg>
