<svg width="44" height="42" viewBox="0 0 44 42" fill="none" xmlns="http://www.w3.org/2000/svg">
<path fill-rule="evenodd" clip-rule="evenodd" d="M0 20.8742C0 32.3967 9.856 41.7484 22 41.7484C34.144 41.7484 44 32.3967 44 20.8742C44 9.35163 34.144 0 22 0C9.856 0 0 9.35163 0 20.8742ZM28.6 12.5245C28.6 15.9896 25.652 18.7868 22 18.7868C18.348 18.7868 15.4 15.9896 15.4 12.5245C15.4 9.05939 18.348 6.26225 22 6.26225C25.652 6.26225 28.6 9.05939 28.6 12.5245ZM8.8 29.1821C8.866 25.0281 17.6 22.7529 22 22.7529C26.378 22.7529 35.134 25.0281 35.2 29.1821C32.362 33.2317 27.5 35.9036 22 35.9036C16.5 35.9036 11.638 33.2317 8.8 29.1821Z" fill="#91A5B5"/>
</svg>
