<svg width="18" height="18" viewBox="0 0 18 18" fill="none" xmlns="http://www.w3.org/2000/svg">
<path d="M9.83317 9.83317H8.1665V4.83317H9.83317M9.83317 13.1665H8.1665V11.4998H9.83317M8.99984 0.666504C7.90549 0.666504 6.82185 0.882052 5.81081 1.30084C4.79976 1.71963 3.8811 2.33346 3.10728 3.10728C1.54448 4.67008 0.666504 6.7897 0.666504 8.99984C0.666504 11.21 1.54448 13.3296 3.10728 14.8924C3.8811 15.6662 4.79976 16.28 5.81081 16.6988C6.82185 17.1176 7.90549 17.3332 8.99984 17.3332C11.21 17.3332 13.3296 16.4552 14.8924 14.8924C16.4552 13.3296 17.3332 11.21 17.3332 8.99984C17.3332 7.90549 17.1176 6.82185 16.6988 5.81081C16.28 4.79976 15.6662 3.8811 14.8924 3.10728C14.1186 2.33346 13.1999 1.71963 12.1889 1.30084C11.1778 0.882052 10.0942 0.666504 8.99984 0.666504Z" fill="#F30000"/>
</svg>
