<svg width="12" height="17" viewBox="0 0 12 17" fill="none" xmlns="http://www.w3.org/2000/svg">
<path fill-rule="evenodd" clip-rule="evenodd" d="M3.5 0.916656H1.41667C1.08515 0.916656 0.767203 1.04835 0.532782 1.28277C0.298362 1.51719 0.166666 1.83514 0.166666 2.16666V15.0833C0.166666 15.4148 0.298362 15.7328 0.532782 15.9672C0.767203 16.2016 1.08515 16.3333 1.41667 16.3333H10.5833C10.9149 16.3333 11.2328 16.2016 11.4672 15.9672C11.7016 15.7328 11.8333 15.4148 11.8333 15.0833V2.16666C11.8333 1.83514 11.7016 1.51719 11.4672 1.28277C11.2328 1.04835 10.9149 0.916656 10.5833 0.916656H8.5V1.74999C8.5 1.971 8.4122 2.18297 8.25592 2.33925C8.09964 2.49553 7.88768 2.58332 7.66667 2.58332H4.33333C4.11232 2.58332 3.90036 2.49553 3.74408 2.33925C3.5878 2.18297 3.5 1.971 3.5 1.74999V0.916656ZM2.25 6.74999C2.25 6.63948 2.2939 6.5335 2.37204 6.45536C2.45018 6.37722 2.55616 6.33332 2.66667 6.33332H5.58333C5.69384 6.33332 5.79982 6.37722 5.87796 6.45536C5.9561 6.5335 6 6.63948 6 6.74999C6 6.8605 5.9561 6.96648 5.87796 7.04462C5.79982 7.12276 5.69384 7.16666 5.58333 7.16666H2.66667C2.55616 7.16666 2.45018 7.12276 2.37204 7.04462C2.2939 6.96648 2.25 6.8605 2.25 6.74999ZM2.66667 4.24999C2.55616 4.24999 2.45018 4.29389 2.37204 4.37203C2.2939 4.45017 2.25 4.55615 2.25 4.66666C2.25 4.77716 2.2939 4.88314 2.37204 4.96128C2.45018 5.03942 2.55616 5.08332 2.66667 5.08332H9.125C9.23551 5.08332 9.34149 5.03942 9.41963 4.96128C9.49777 4.88314 9.54167 4.77716 9.54167 4.66666C9.54167 4.55615 9.49777 4.45017 9.41963 4.37203C9.34149 4.29389 9.23551 4.24999 9.125 4.24999H2.66667ZM3.08333 10.0833V10.9167H3.91667V10.0833H3.08333ZM2.66667 9.24999C2.55616 9.24999 2.45018 9.29389 2.37204 9.37203C2.2939 9.45017 2.25 9.55615 2.25 9.66666V11.3333C2.25 11.4438 2.2939 11.5498 2.37204 11.628C2.45018 11.7061 2.55616 11.75 2.66667 11.75H4.33333C4.44384 11.75 4.54982 11.7061 4.62796 11.628C4.7061 11.5498 4.75 11.4438 4.75 11.3333V9.66666C4.75 9.55615 4.7061 9.45017 4.62796 9.37203C4.54982 9.29389 4.44384 9.24999 4.33333 9.24999H2.66667ZM8.91667 10.0833C8.91667 10.4148 8.78497 10.7328 8.55055 10.9672C8.31613 11.2016 7.99819 11.3333 7.66667 11.3333C7.33515 11.3333 7.0172 11.2016 6.78278 10.9672C6.54836 10.7328 6.41667 10.4148 6.41667 10.0833C6.41667 9.7518 6.54836 9.43386 6.78278 9.19944C7.0172 8.96502 7.33515 8.83332 7.66667 8.83332C7.99819 8.83332 8.31613 8.96502 8.55055 9.19944C8.78497 9.43386 8.91667 9.7518 8.91667 10.0833V10.0833ZM7.66667 11.8825C6.83208 11.8825 5.16667 12.3267 5.16667 13.2083V14.25H10.1667V13.2083C10.1667 12.3267 8.50125 11.8825 7.66667 11.8825Z" fill="#7B7C7D"/>
</svg>
